<?xml version="1.0" encoding="UTF-8" standalone="no"?>
<!-- Created with Inkscape (http://www.inkscape.org/) -->

<svg
   xmlns:dc="http://purl.org/dc/elements/1.1/"
   xmlns:cc="http://creativecommons.org/ns#"
   xmlns:rdf="http://www.w3.org/1999/02/22-rdf-syntax-ns#"
   xmlns:svg="http://www.w3.org/2000/svg"
   xmlns="http://www.w3.org/2000/svg"
   xmlns:sodipodi="http://sodipodi.sourceforge.net/DTD/sodipodi-0.dtd"
   xmlns:inkscape="http://www.inkscape.org/namespaces/inkscape"
   width="128"
   height="128"
   viewBox="0 0 33.866666 33.866668"
   version="1.1"
   id="svg8"
   inkscape:version="0.92.2 (5c3e80d, 2017-08-06)"
   sodipodi:docname="itemImages.svg"
   inkscape:export-filename="D:\Dropbox\CuddlyCthulhuCreatives\VideoGames\FetchQuest\Assets\Items\favouriteBone.png"
   inkscape:export-xdpi="96"
   inkscape:export-ydpi="96">
  <defs
     id="defs2" />
  <sodipodi:namedview
     id="base"
     pagecolor="#ffffff"
     bordercolor="#666666"
     borderopacity="1.0"
     inkscape:pageopacity="0.0"
     inkscape:pageshadow="2"
     inkscape:zoom="3.959798"
     inkscape:cx="57.63773"
     inkscape:cy="102.86234"
     inkscape:document-units="px"
     inkscape:current-layer="layer1"
     showgrid="false"
     inkscape:pagecheckerboard="true"
     inkscape:window-width="2560"
     inkscape:window-height="1377"
     inkscape:window-x="-8"
     inkscape:window-y="32"
     inkscape:window-maximized="1"
     units="px" />
  <metadata
     id="metadata5">
    <rdf:RDF>
      <cc:Work
         rdf:about="">
        <dc:format>image/svg+xml</dc:format>
        <dc:type
           rdf:resource="http://purl.org/dc/dcmitype/StillImage" />
        <dc:title></dc:title>
      </cc:Work>
    </rdf:RDF>
  </metadata>
  <g
     inkscape:label="Layer 1"
     inkscape:groupmode="layer"
     id="layer1"
     transform="translate(0,-263.1333)">
    <path
       style="opacity:1;vector-effect:none;fill:#ffffff;fill-opacity:1;fill-rule:nonzero;stroke:#333333;stroke-width:0.5291667;stroke-linecap:round;stroke-linejoin:round;stroke-miterlimit:4;stroke-dasharray:none;stroke-dashoffset:0;stroke-opacity:1;paint-order:normal"
       d="m 23.798253,295.18672 c -2.201702,0 -3.986535,-1.64815 -3.986534,-3.68125 0,-1.24633 0.670724,-2.348 1.712147,-2.99997 -3.785913,-5.12559 -7.07547,-10.58439 -12.4412627,-15.89393 -0.6710264,0.57241 -1.5554243,0.9186 -2.523414,0.9186 -2.1223612,0 -3.8428747,-1.66423 -3.8428745,-3.71717 -2e-7,-2.05294 1.7205133,-3.71717 3.8428745,-3.71717 0.6657733,0 1.2920031,0.16376 1.8652218,0.44499 0.7468317,-0.96608 1.9472189,-1.59429 3.3064979,-1.59429 2.2017,0 3.986534,1.64816 3.986533,3.68126 0,1.42961 -0.882508,2.6689 -2.193455,3.2644 3.7359,5.10165 8.488775,9.92283 13.133252,14.80745 2.362009,-0.96727 3.653713,-0.22293 4.229213,1.18109 0.5755,1.40402 0.343853,2.89793 -2.023701,3.8684 -0.383657,0.15725 -0.767775,0.27985 -1.136349,0.3552 -0.29534,1.74136 -1.94215,3.08239 -3.928149,3.08239 z"
       id="ellipse820"
       inkscape:connector-curvature="0"
       sodipodi:nodetypes="ssccssscssccsscs" />
  </g>
</svg>
