<?xml version="1.0" encoding="UTF-8" standalone="no"?>
<!-- Created with Inkscape (http://www.inkscape.org/) -->

<svg
   xmlns:dc="http://purl.org/dc/elements/1.1/"
   xmlns:cc="http://creativecommons.org/ns#"
   xmlns:rdf="http://www.w3.org/1999/02/22-rdf-syntax-ns#"
   xmlns:svg="http://www.w3.org/2000/svg"
   xmlns="http://www.w3.org/2000/svg"
   xmlns:sodipodi="http://sodipodi.sourceforge.net/DTD/sodipodi-0.dtd"
   xmlns:inkscape="http://www.inkscape.org/namespaces/inkscape"
   width="578"
   height="64"
   viewBox="0 0 152.92916 16.933334"
   version="1.1"
   id="svg8"
   inkscape:version="0.92.3 (2405546, 2018-03-11)"
   sodipodi:docname="choiceButton.svg.2018_03_25_07_54_09.0.svg"
   inkscape:export-filename="D:\Dropbox\CuddlyCthulhuCreatives\VideoGames\FetchQuest\Assets\Buttons\choiceButton5.png"
   inkscape:export-xdpi="96"
   inkscape:export-ydpi="96"
   enable-background="new">
  <defs
     id="defs2">
    <filter
       inkscape:label="Bark"
       inkscape:menu="Textures"
       inkscape:menu-tooltip="Bark texture, vertical; use with deep colors"
       style="color-interpolation-filters:sRGB;"
       id="filter866">
      <feTurbulence
         seed="10"
         baseFrequency="0.12 0.02"
         numOctaves="10"
         type="fractalNoise"
         id="feTurbulence844" />
      <feColorMatrix
         values="1 0 0 0 0 0 1 0 0 0 0 0 1 0 0 0 0 0 0.7 0 "
         result="result5"
         id="feColorMatrix846" />
      <feComposite
         in2="result5"
         operator="out"
         in="SourceGraphic"
         id="feComposite848" />
      <feMorphology
         result="result3"
         radius="1.3"
         operator="dilate"
         id="feMorphology850" />
      <feTurbulence
         seed="25"
         type="turbulence"
         baseFrequency="0.08 0.05"
         numOctaves="8"
         result="result91"
         id="feTurbulence852" />
      <feDisplacementMap
         result="result4"
         scale="5"
         yChannelSelector="G"
         xChannelSelector="R"
         in="result3"
         in2="result91"
         id="feDisplacementMap854" />
      <feSpecularLighting
         specularExponent="35"
         specularConstant="1"
         surfaceScale="2"
         lighting-color="rgb(255,255,255)"
         result="result1"
         in="result4"
         id="feSpecularLighting858">
        <feDistantLight
           azimuth="235"
           elevation="75"
           id="feDistantLight856" />
      </feSpecularLighting>
      <feComposite
         operator="in"
         result="result2"
         in="result1"
         in2="result4"
         id="feComposite860" />
      <feComposite
         k3="1"
         k2="1"
         operator="arithmetic"
         result="result4"
         in="result4"
         in2="result2"
         id="feComposite862" />
      <feBlend
         mode="multiply"
         in2="result4"
         id="feBlend864" />
    </filter>
    <filter
       inkscape:collect="always"
       style="color-interpolation-filters:sRGB"
       id="filter910">
      <feBlend
         inkscape:collect="always"
         mode="multiply"
         in2="BackgroundImage"
         id="feBlend912" />
    </filter>
    <clipPath
       clipPathUnits="userSpaceOnUse"
       id="clipPath935">
      <path
         inkscape:connector-curvature="0"
         style="opacity:1;vector-effect:none;fill:#917c6f;fill-opacity:1;fill-rule:nonzero;stroke:#333333;stroke-width:0.52916664;stroke-linecap:round;stroke-linejoin:round;stroke-miterlimit:4;stroke-dasharray:none;stroke-dashoffset:0;stroke-opacity:1;paint-order:normal"
         d="M 28.679688,-5.0453175e-8 A 18.909004,16.098206 52.466219 0 1 26.162109,22.923828 18.909004,16.098206 52.466219 0 1 10.748047,24.523438 11.25,8.3928572 0 0 1 3.8652344,29.597656 11.25,13.214286 0 0 1 5.3574218,36.142578 11.25,13.214286 0 0 1 0,47.378907 v 2.69336 c 0,7.716431 6.2113056,13.927737 13.927734,13.927737 H 165.12109 a 13.214286,11.25 52.466219 0 1 3.79297,-6.550783 13.214286,11.25 52.466219 0 1 16.97071,3.625001 13.214286,11.25 52.466219 0 1 0.48828,0.695312 15.715456,13.379375 86.656869 0 1 10.74609,-7.744142 15.715456,13.379375 86.656869 0 1 12.40039,7.871093 14.15513,16.732302 75.268777 0 1 17.71875,-5.605467 14.15513,16.732302 75.268777 0 1 10.35547,7.708986 h 307.70119 a 9.4002283,11.041538 18.366998 0 1 10.86327,-4.408203 9.4002283,11.041538 18.366998 0 1 4.28712,3.30664 13.214286,11.25 81.198599 0 1 6.26952,-6.134766 15.618547,13.29687 60.260916 0 1 5.74416,-15.07422 15.618547,13.29687 60.260916 0 1 5.54101,-1.501954 V 13.927734 C 578.00002,6.2113056 571.78871,-5.0453175e-8 564.07228,-5.0453175e-8 H 457.80665 A 11.25,13.214286 18.366998 0 1 443.51562,7.6132812 11.25,13.214286 18.366998 0 1 439.16016,4.6601564 9.8626716,11.584725 18.366998 0 1 431.17191,5.886719 9.8626716,11.584725 18.366998 0 1 428.17969,4.1328125 12.020739,14.119598 18.366997 0 1 416.80078,6.8652345 12.020739,14.119598 18.366997 0 1 415.46876,6.3027346 10.016819,11.765787 18.366998 0 1 403.97072,10.880859 10.016819,11.765787 18.366998 0 1 397.50002,-5.0453175e-8 Z"
         id="path937" />
    </clipPath>
    <filter
       inkscape:label="Bark"
       inkscape:menu="Textures"
       inkscape:menu-tooltip="Bark texture, vertical; use with deep colors"
       style="color-interpolation-filters:sRGB;"
       id="filter1075">
      <feTurbulence
         seed="10"
         baseFrequency="0.12 0.02"
         numOctaves="10"
         type="fractalNoise"
         id="feTurbulence1053" />
      <feColorMatrix
         values="1 0 0 0 0 0 1 0 0 0 0 0 1 0 0 0 0 0 0.7 0 "
         result="result5"
         id="feColorMatrix1055" />
      <feComposite
         in2="result5"
         operator="out"
         in="SourceGraphic"
         id="feComposite1057" />
      <feMorphology
         result="result3"
         radius="1.3"
         operator="dilate"
         id="feMorphology1059" />
      <feTurbulence
         seed="25"
         type="turbulence"
         baseFrequency="0.08 0.05"
         numOctaves="8"
         result="result91"
         id="feTurbulence1061" />
      <feDisplacementMap
         result="result4"
         scale="5"
         yChannelSelector="G"
         xChannelSelector="R"
         in="result3"
         in2="result91"
         id="feDisplacementMap1063" />
      <feSpecularLighting
         specularExponent="35"
         specularConstant="1"
         surfaceScale="2"
         lighting-color="rgb(255,255,255)"
         result="result1"
         in="result4"
         id="feSpecularLighting1067">
        <feDistantLight
           azimuth="235"
           elevation="75"
           id="feDistantLight1065" />
      </feSpecularLighting>
      <feComposite
         operator="in"
         result="result2"
         in="result1"
         in2="result4"
         id="feComposite1069" />
      <feComposite
         k3="1"
         k2="1"
         operator="arithmetic"
         result="result4"
         in="result4"
         in2="result2"
         id="feComposite1071" />
      <feBlend
         mode="multiply"
         in2="result4"
         id="feBlend1073" />
    </filter>
    <clipPath
       clipPathUnits="userSpaceOnUse"
       id="clipPath1098">
      <path
         inkscape:connector-curvature="0"
         style="opacity:1;vector-effect:none;fill:#9c6037;fill-opacity:1;fill-rule:nonzero;stroke:none;stroke-width:0.79374999;stroke-linecap:round;stroke-linejoin:round;stroke-miterlimit:4;stroke-dasharray:none;stroke-dashoffset:0;stroke-opacity:1;paint-order:normal"
         d="M 13.927734,0 C 6.2113056,0 0,6.2113056 0,13.927734 V 49.439453 A 11.25,7.5000001 0 0 1 3.75,49 a 11.25,7.5000001 0 0 1 11.224609,6.99414 9.4642856,8.3928572 0 0 1 3.417969,-0.566403 9.4642856,8.3928572 0 0 1 6.994141,2.751953 9.4642856,8.3928572 0 0 1 7.648437,-3.464844 9.4642856,8.3928572 0 0 1 9.464845,8.392577 A 9.4642856,8.3928572 0 0 1 42.435561,64 H 504.07813 a 9.4642856,8.3928572 0 0 1 8.95703,-5.714842 9.4642856,8.3928572 0 0 1 4.66409,1.095704 11.249999,12.321428 36.353347 0 1 9.80077,-4.656254 11.249999,12.321428 36.353347 0 1 6.05469,2.031251 A 11.249999,12.321428 36.353347 0 1 537.7676,64 h 26.30468 c 7.71643,0 13.92774,-6.211306 13.92774,-13.927733 V 30.003906 a 9.4642856,8.3928572 0 0 1 -5.5,-7.611328 9.4642856,8.3928572 0 0 1 0.30077,-2.058594 11.249999,12.321428 36.353347 0 1 -4.92578,-1.947265 A 11.249999,12.321428 36.353347 0 1 563.73049,7.4121095 9.4642856,8.3928572 0 0 1 557.52734,0 H 122.48242 a 9.4642856,8.3928572 0 0 1 -9.44726,7.9277345 9.4642856,8.3928572 0 0 1 -6.75,-2.5117186 A 11.249999,12.321428 36.353347 0 1 90.732424,7.6738281 11.249999,12.321428 36.353347 0 1 87.810547,4.3417969 9.4642856,8.3928572 0 0 1 87.322266,4.3574219 9.4642856,8.3928572 0 0 1 79.023441,0 Z"
         id="path1100" />
    </clipPath>
    <filter
       inkscape:label="Bark"
       inkscape:menu="Textures"
       inkscape:menu-tooltip="Bark texture, vertical; use with deep colors"
       style="color-interpolation-filters:sRGB;"
       id="filter905">
      <feTurbulence
         seed="10"
         baseFrequency="0.12 0.02"
         numOctaves="10"
         type="fractalNoise"
         id="feTurbulence883" />
      <feColorMatrix
         values="1 0 0 0 0 0 1 0 0 0 0 0 1 0 0 0 0 0 0.7 0 "
         result="result5"
         id="feColorMatrix885" />
      <feComposite
         in2="result5"
         operator="out"
         in="SourceGraphic"
         id="feComposite887" />
      <feMorphology
         result="result3"
         radius="1.3"
         operator="dilate"
         id="feMorphology889" />
      <feTurbulence
         seed="25"
         type="turbulence"
         baseFrequency="0.08 0.05"
         numOctaves="8"
         result="result91"
         id="feTurbulence891" />
      <feDisplacementMap
         result="result4"
         scale="5"
         yChannelSelector="G"
         xChannelSelector="R"
         in="result3"
         in2="result91"
         id="feDisplacementMap893" />
      <feSpecularLighting
         specularExponent="35"
         specularConstant="1"
         surfaceScale="2"
         lighting-color="rgb(255,255,255)"
         result="result1"
         in="result4"
         id="feSpecularLighting897">
        <feDistantLight
           azimuth="235"
           elevation="75"
           id="feDistantLight895" />
      </feSpecularLighting>
      <feComposite
         operator="in"
         result="result2"
         in="result1"
         in2="result4"
         id="feComposite899" />
      <feComposite
         k3="1"
         k2="1"
         operator="arithmetic"
         result="result4"
         in="result4"
         in2="result2"
         id="feComposite901" />
      <feBlend
         mode="multiply"
         in2="result4"
         id="feBlend903" />
    </filter>
    <clipPath
       clipPathUnits="userSpaceOnUse"
       id="clipPath913">
      <path
         inkscape:connector-curvature="0"
         style="opacity:1;vector-effect:none;fill:#9c6037;fill-opacity:1;fill-rule:nonzero;stroke:none;stroke-width:0.79374999;stroke-linecap:round;stroke-linejoin:round;stroke-miterlimit:4;stroke-dasharray:none;stroke-dashoffset:0;stroke-opacity:1;paint-order:normal"
         d="M 3.6850463,0 C 1.6434079,0 0,1.6434079 0,3.6850463 V 4.4927491 A 3.5413209,2.0045213 41.521858 0 1 0.68833008,5.0182984 3.5413209,2.0045213 41.521858 0 1 2.01073,8.8666423 3.5413209,2.0045213 41.521858 0 1 1.8985921,8.9730956 3.5413209,2.0045213 0 0 1 2.2391398,9.8262736 3.5413209,2.0045213 0 0 1 0,11.688692 v 1.559595 c 0,2.041638 1.6434079,3.685046 3.6850463,3.685046 H 49.067805 a 1.5932318,2.422561 2.8583021 0 1 0.165364,-0.451652 1.5932318,2.422561 2.8583021 0 1 1.5782,-1.067118 5.6523877,3.4324099 54.609856 0 1 1.846916,-1.103292 5.6523877,3.4324099 54.609856 0 1 2.835484,0.993738 5.6523877,3.4324099 54.609856 0 1 1.565796,-0.716235 5.6523877,3.4324099 54.609856 0 1 4.307748,2.344559 h 72.974357 a 1.5932318,2.422561 2.8583021 0 1 0.0305,-0.0739 1.5932318,2.422561 2.8583021 0 1 2.22777,-0.694015 1.5932318,2.422561 2.8583021 0 1 0.12661,0.146245 1.5932318,2.422561 2.8583021 0 1 2.14095,-0.523999 1.5932318,2.422561 2.8583021 0 1 0.20206,0.252181 1.5932318,2.422561 2.8583021 0 1 0.12195,-0.314193 1.5932318,2.422561 2.8583021 0 1 1.37976,-1.091406 1.5932318,2.422561 2.8583021 0 1 0.8475,0.397392 1.5932318,2.422561 2.8583021 0 1 0.66094,1.901692 h 7.16442 c 2.04164,0 3.68505,-1.643408 3.68505,-3.685046 V 3.6850463 C 152.92917,1.6434079 151.28576,0 149.24412,0 H 113.21635 A 2.8685559,6.7634419 11.28934 0 1 110.13953,0.87539877 2.8685559,6.7634419 11.28934 0 1 109.83722,0.42219644 3.9153317,6.9130653 19.124069 0 1 104.75795,2.1983154 3.9153317,6.9130653 19.124069 0 1 104.05773,1.3198161 2.8685559,6.7634419 11.28934 0 1 101.446,1.6309082 2.8685559,6.7634419 11.28934 0 1 100.70962,0 H 27.816389 A 1.5932318,2.422561 2.8583021 0 1 27.632422,0.52451579 1.5932318,2.422561 2.8583021 0 1 25.404651,1.219047 1.5932318,2.422561 2.8583021 0 1 24.932845,0.42943116 1.5932318,2.422561 2.8583021 0 1 24.892021,0.52451579 1.5932318,2.422561 2.8583021 0 1 22.924699,1.4304036 1.5932318,2.422561 2.8583021 0 1 22.907646,1.4696777 1.5932318,2.422561 2.8583021 0 1 20.680391,2.1636922 1.5932318,2.422561 2.8583021 0 1 20.027201,0 Z"
         id="path915" />
    </clipPath>
    <filter
       inkscape:label="Bark"
       inkscape:menu="Textures"
       inkscape:menu-tooltip="Bark texture, vertical; use with deep colors"
       style="color-interpolation-filters:sRGB;"
       id="filter999">
      <feTurbulence
         seed="10"
         baseFrequency="0.12 0.02"
         numOctaves="10"
         type="fractalNoise"
         id="feTurbulence977" />
      <feColorMatrix
         values="1 0 0 0 0 0 1 0 0 0 0 0 1 0 0 0 0 0 0.7 0 "
         result="result5"
         id="feColorMatrix979" />
      <feComposite
         in2="result5"
         operator="out"
         in="SourceGraphic"
         id="feComposite981" />
      <feMorphology
         result="result3"
         radius="1.3"
         operator="dilate"
         id="feMorphology983" />
      <feTurbulence
         seed="25"
         type="turbulence"
         baseFrequency="0.08 0.05"
         numOctaves="8"
         result="result91"
         id="feTurbulence985" />
      <feDisplacementMap
         result="result4"
         scale="5"
         yChannelSelector="G"
         xChannelSelector="R"
         in="result3"
         in2="result91"
         id="feDisplacementMap987" />
      <feSpecularLighting
         specularExponent="35"
         specularConstant="1"
         surfaceScale="2"
         lighting-color="rgb(255,255,255)"
         result="result1"
         in="result4"
         id="feSpecularLighting991">
        <feDistantLight
           azimuth="235"
           elevation="75"
           id="feDistantLight989" />
      </feSpecularLighting>
      <feComposite
         operator="in"
         result="result2"
         in="result1"
         in2="result4"
         id="feComposite993" />
      <feComposite
         k3="1"
         k2="1"
         operator="arithmetic"
         result="result4"
         in="result4"
         in2="result2"
         id="feComposite995" />
      <feBlend
         mode="multiply"
         in2="result4"
         id="feBlend997" />
    </filter>
    <clipPath
       clipPathUnits="userSpaceOnUse"
       id="clipPath1007">
      <path
         inkscape:connector-curvature="0"
         style="opacity:1;vector-effect:none;fill:#9c6037;fill-opacity:1;fill-rule:nonzero;stroke:none;stroke-width:0.79374999;stroke-linecap:round;stroke-linejoin:round;stroke-miterlimit:4;stroke-dasharray:none;stroke-dashoffset:0;stroke-opacity:1;paint-order:normal"
         d="M 8.951908,0 A 3.827009,3.9687505 0 0 1 9.0712806,0.96376545 3.827009,3.9687505 0 0 1 5.9753455,4.8560344 3.827009,3.9687505 0 0 1 5.0673907,5.8471882 3.827009,3.9687505 0 0 1 5.1025306,6.35 a 3.827009,3.9687505 0 0 1 -3.183268,3.911906 3.827009,3.9687505 0 0 1 0.065112,0.718302 3.827009,3.9687505 0 0 1 -1.81694336,3.371888 c 0.46700961,1.49897 1.86092266,2.581237 3.51761436,2.581237 H 56.033789 a 2.5040922,3.9687505 0 0 1 1.74925,-1.133781 2.5040922,3.9687505 0 0 1 1.746144,1.133781 h 0.239263 a 3.0710566,3.9687505 0 0 1 2.739366,-2.173511 3.0710566,3.9687505 0 0 1 2.704227,2.095997 2.5040922,3.9687505 0 0 1 1.925982,-1.434538 2.5040922,3.9687505 0 0 1 1.963187,1.512052 h 80.142912 c 2.04164,0 3.68505,-1.643408 3.68505,-3.685046 V 5.861141 a 2.5040922,3.9687505 22.233615 0 1 -0.0982,-0.031006 2.5040922,3.9687505 22.233615 0 1 -1.24592,-2.8447875 3.0710566,3.9687505 22.233615 0 1 -2.79001,0.480074 3.0710566,3.9687505 22.233615 0 1 -1.65416,-2.2815144 2.5040922,3.9687505 22.233615 0 1 -3.11247,1.4562418 A 2.5040922,3.9687505 22.233615 0 1 142.77423,0 h -30.10049 a 3.9496696,4.129401 71.662982 0 1 -3.89433,2.3667806 3.9496696,4.129401 71.662982 0 1 -2.85564,-1.219047 3.9496696,4.129401 71.662985 0 1 -2.34146,0.6521565 3.9496696,4.129401 71.662985 0 1 -2.6169,-0.99063716 A 3.9496696,4.129401 71.662985 0 1 98.857533,1.3270508 3.9496696,4.129401 71.662985 0 1 95.90474,0 Z"
         id="path1009" />
    </clipPath>
    <filter
       inkscape:label="Bark"
       inkscape:menu="Textures"
       inkscape:menu-tooltip="Bark texture, vertical; use with deep colors"
       style="color-interpolation-filters:sRGB;"
       id="filter1082">
      <feTurbulence
         seed="10"
         baseFrequency="0.12 0.02"
         numOctaves="10"
         type="fractalNoise"
         id="feTurbulence1060" />
      <feColorMatrix
         values="1 0 0 0 0 0 1 0 0 0 0 0 1 0 0 0 0 0 0.7 0 "
         result="result5"
         id="feColorMatrix1062" />
      <feComposite
         in2="result5"
         operator="out"
         in="SourceGraphic"
         id="feComposite1064" />
      <feMorphology
         result="result3"
         radius="1.3"
         operator="dilate"
         id="feMorphology1066" />
      <feTurbulence
         seed="25"
         type="turbulence"
         baseFrequency="0.08 0.05"
         numOctaves="8"
         result="result91"
         id="feTurbulence1068" />
      <feDisplacementMap
         result="result4"
         scale="5"
         yChannelSelector="G"
         xChannelSelector="R"
         in="result3"
         in2="result91"
         id="feDisplacementMap1070" />
      <feSpecularLighting
         specularExponent="35"
         specularConstant="1"
         surfaceScale="2"
         lighting-color="rgb(255,255,255)"
         result="result1"
         in="result4"
         id="feSpecularLighting1074">
        <feDistantLight
           azimuth="235"
           elevation="75"
           id="feDistantLight1072" />
      </feSpecularLighting>
      <feComposite
         operator="in"
         result="result2"
         in="result1"
         in2="result4"
         id="feComposite1076" />
      <feComposite
         k3="1"
         k2="1"
         operator="arithmetic"
         result="result4"
         in="result4"
         in2="result2"
         id="feComposite1078" />
      <feBlend
         mode="multiply"
         in2="result4"
         id="feBlend1080" />
    </filter>
    <clipPath
       clipPathUnits="userSpaceOnUse"
       id="clipPath1090">
      <path
         inkscape:connector-curvature="0"
         style="opacity:1;vector-effect:none;fill:#9c6037;fill-opacity:1;fill-rule:nonzero;stroke:none;stroke-width:0.79374999;stroke-linecap:round;stroke-linejoin:round;stroke-miterlimit:4;stroke-dasharray:none;stroke-dashoffset:0;stroke-opacity:1;paint-order:normal"
         d="M 3.6850463,0 C 1.6434079,0 0,1.6434079 0,3.6850463 V 3.8132038 A 3.1655507,2.5513393 0 0 1 0.33072917,3.7987346 3.1655507,2.5513393 0 0 1 3.4964275,6.35 3.1655507,2.5513393 0 0 1 2.7398845,8.0041625 3.1655507,2.5513393 0 0 1 4.1578858,10.129614 3.1655507,2.5513393 0 0 1 2.3362915,12.43645 3.1655507,2.5513393 0 0 1 2.6458333,13.531474 3.1655507,2.5513393 0 0 1 0.99890543,15.770097 c 0.67138507,0.71517 1.62326917,1.163236 2.68614087,1.163236 H 46.730997 a 2.3963157,3.3703379 60.780628 0 1 2.358514,-1.417484 2.3963157,3.3703379 60.780628 0 1 2.846853,0.76016 2.3963157,3.3703379 60.780628 0 1 1.500166,-0.665592 2.3963157,3.3703379 60.780628 0 1 1.949236,0.07958 3.3703379,2.3963157 48.272786 0 1 1.257287,-1.022159 3.3703379,2.3963157 48.272786 0 1 0.522967,-0.05116 3.3703379,2.3963157 48.272786 0 1 3.333129,2.316654 h 59.065131 a 3.1655507,2.5513393 83.493299 0 1 2.11615,-2.200382 3.1655507,2.5513393 83.493299 0 1 2.34714,1.283642 3.1655507,2.5513393 83.493299 0 1 1.05472,-0.433048 3.1655507,2.5513393 83.493299 0 1 0.75189,0.05271 3.1655507,2.5513393 83.493299 0 1 1.98851,-1.753382 3.1655507,2.5513393 83.493299 0 1 0.25476,-0.01343 3.1655507,2.5513393 83.493299 0 1 2.3704,1.836064 3.1655507,2.5513393 83.493299 0 1 1.34359,-0.688847 3.1655507,2.5513393 83.493299 0 1 2.66444,1.916678 h 14.78824 c 2.04164,0 3.68505,-1.643408 3.68505,-3.685046 V 3.6850463 C 152.92917,1.6434079 151.28576,0 149.24412,0 H 112.25775 A 3.1655507,2.5513393 83.493299 0 1 110.20826,1.9357991 3.1655507,2.5513393 83.493299 0 1 107.88179,0.68677978 3.1655507,2.5513393 83.493299 0 1 106.23951,1.7466634 3.1655507,2.5513393 83.493299 0 1 104.10941,0.77152913 3.1655507,2.5513393 83.493299 0 1 102.45938,1.8412313 3.1655507,2.5513393 83.493299 0 1 99.826466,0 Z"
         id="path1092" />
    </clipPath>
  </defs>
  <sodipodi:namedview
     id="base"
     pagecolor="#ffffff"
     bordercolor="#666666"
     borderopacity="1.0"
     inkscape:pageopacity="0.0"
     inkscape:pageshadow="2"
     inkscape:zoom="0.98994949"
     inkscape:cx="580.07527"
     inkscape:cy="124.40102"
     inkscape:document-units="px"
     inkscape:current-layer="layer3"
     showgrid="false"
     inkscape:pagecheckerboard="true"
     inkscape:window-width="2560"
     inkscape:window-height="1377"
     inkscape:window-x="-8"
     inkscape:window-y="32"
     inkscape:window-maximized="1"
     units="px"
     inkscape:snap-page="true" />
  <metadata
     id="metadata5">
    <rdf:RDF>
      <cc:Work
         rdf:about="">
        <dc:format>image/svg+xml</dc:format>
        <dc:type
           rdf:resource="http://purl.org/dc/dcmitype/StillImage" />
        <dc:title></dc:title>
      </cc:Work>
    </rdf:RDF>
  </metadata>
  <g
     inkscape:label="Layer 1"
     inkscape:groupmode="layer"
     id="layer1"
     transform="translate(0,-280.06663)">
    <path
       style="opacity:1;vector-effect:none;fill:#9c6037;fill-opacity:1;fill-rule:nonzero;stroke:none;stroke-width:0.79374999;stroke-linecap:round;stroke-linejoin:round;stroke-miterlimit:4;stroke-dasharray:none;stroke-dashoffset:0;stroke-opacity:1;paint-order:normal"
       d="m 7.3786917,253.81619 a 4.8585594,4.1586605 44.690314 0 1 -0.6626522,5.78095 4.8585594,4.1586605 44.690314 0 1 -4.0571364,0.40339 2.9611133,2.116519 0 0 1 -1.81162559,1.27963 2.9611133,3.3323918 0 0 1 0.39275879,1.6505 2.9611133,3.3323918 0 0 1 -1.41012742,2.83359 v 0.67922 c 0,1.94593 1.63487822,3.5123 3.66591982,3.5123 H 43.291443 a 3.3953345,2.9062201 44.690316 0 1 0.998347,-1.65198 3.3953345,2.9062201 44.690316 0 1 4.466862,0.91416 3.3953345,2.9062201 44.690316 0 1 0.128521,0.17534 3.9639258,3.5208875 85.442813 0 1 2.828478,-1.95292 3.9639258,3.5208875 85.442813 0 1 3.263908,1.98494 3.5775969,4.3943334 78.237651 0 1 4.663754,-1.4136 3.5775969,4.3943334 78.237651 0 1 2.725664,1.94406 h 80.990053 a 2.46056,2.7999409 24.125841 0 1 2.85932,-1.11166 2.46056,2.7999409 24.125841 0 1 1.12841,0.83387 3.3369031,2.95711 78.100276 0 1 1.6502,-1.54707 3.9900549,3.4548248 52.783141 0 1 1.51192,-3.80144 3.9900549,3.4548248 52.783141 0 1 1.45845,-0.37876 v -6.62221 c 0,-1.94593 -1.63487,-3.51231 -3.66592,-3.51231 h -27.97018 a 2.9447477,3.3509118 24.12584 0 1 -3.76154,1.91993 2.9447477,3.3509118 24.12584 0 1 -1.1464,-0.74473 2.5816069,2.9376836 24.12584 0 1 -2.1026,0.30932 2.5816069,2.9376836 24.12584 0 1 -0.78757,-0.44231 3.1464927,3.5804831 24.125839 0 1 -2.99505,0.68908 3.1464927,3.5804831 24.125839 0 1 -0.3506,-0.14186 2.6219559,2.9835978 24.125841 0 1 -3.02641,1.15451 2.6219559,2.9835978 24.125841 0 1 -1.70315,-2.74394 z"
       id="rect812"
       inkscape:connector-curvature="0" />
    <path
       style="opacity:1;vector-effect:none;fill:#9c6037;fill-opacity:1;fill-rule:nonzero;stroke:none;stroke-width:0.79374999;stroke-linecap:round;stroke-linejoin:round;stroke-miterlimit:4;stroke-dasharray:none;stroke-dashoffset:0;stroke-opacity:1;paint-order:normal"
       d="m 1.3900978,230.35046 c -2.03104167,0 -3.6659199,1.56638 -3.6659199,3.51232 v 8.95538 a 2.9611134,1.8913581 0 0 1 0.9870378,-0.11083 2.9611134,1.8913581 0 0 1 2.9544301,1.7638 2.4910953,2.1165198 0 0 1 0.899644,-0.14284 2.4910953,2.1165198 0 0 1 1.8409283,0.694 2.4910953,2.1165198 0 0 1 2.0131453,-0.87377 2.4910953,2.1165198 0 0 1 2.4912423,2.11644 2.4910953,2.1165198 0 0 1 -0.01696,0.22509 H 130.40261 a 2.4910953,2.1165198 0 0 1 2.35758,-1.44117 2.4910953,2.1165198 0 0 1 1.22763,0.27632 2.9022797,3.1702192 50.176747 0 1 2.57967,-1.17422 2.9022797,3.1702192 50.176747 0 1 1.59365,0.51223 2.9022797,3.1702192 50.176747 0 1 1.10887,1.82684 h 6.92367 c 2.03103,0 3.66592,-1.56637 3.66592,-3.5123 v -5.06087 a 2.4910953,2.1165198 0 0 1 -1.44767,-1.91943 2.4910953,2.1165198 0 0 1 0.0791,-0.51914 2.9022797,3.1702192 50.176747 0 1 -1.29651,-0.49106 2.9022797,3.1702192 50.176747 0 1 -1.09088,-2.76759 2.4910953,2.1165198 0 0 1 -1.63273,-1.8692 H 29.962785 a 2.4910953,2.1165198 0 0 1 -2.486614,1.99923 2.4910953,2.1165198 0 0 1 -1.776668,-0.63341 2.9022797,3.1702192 50.176747 0 1 -4.093637,0.56938 2.9022797,3.1702192 50.176747 0 1 -0.769067,-0.84027 2.4910953,2.1165198 0 0 1 -0.128521,0.004 2.4910953,2.1165198 0 0 1 -2.184335,-1.09886 z"
       id="rect812-2"
       inkscape:connector-curvature="0" />
    <path
       style="opacity:1;vector-effect:none;fill:#9c6037;fill-opacity:1;fill-rule:nonzero;stroke:none;stroke-width:0.79374999;stroke-linecap:round;stroke-linejoin:round;stroke-miterlimit:4;stroke-dasharray:none;stroke-dashoffset:0;stroke-opacity:1;paint-order:normal"
       d="m 2.1729355,203.92333 c -2.03104135,0 -3.6659193,1.56637 -3.6659193,3.5123 v 0.76985 a 3.460292,1.9451497 39.181853 0 1 0.68475735,0.50092 3.460292,1.9451497 39.181853 0 1 1.3155361,3.66795 3.460292,1.9451497 39.181853 0 1 -0.1115559,0.10146 3.52294,1.9105594 0 0 1 0.3387801,0.81318 3.52294,1.9105594 0 0 1 -2.22751765,1.77512 v 1.48649 c 0,1.94593 1.63487795,3.51231 3.6659193,3.51231 H 47.320138 a 1.5847733,2.3092788 3.2006331 0 1 0.164507,-0.43048 1.5847733,2.3092788 3.2006331 0 1 1.570007,-1.0171 5.4703121,3.3628601 52.034771 0 1 1.83733,-1.05157 5.4703121,3.3628601 52.034771 0 1 2.820767,0.94716 5.4703121,3.3628601 52.034771 0 1 1.557669,-0.68267 5.4703121,3.3628601 52.034771 0 1 4.285388,2.23466 H 132.1514 a 1.5847733,2.3092788 3.2006331 0 1 0.0303,-0.0704 1.5847733,2.3092788 3.2006331 0 1 2.21621,-0.66147 1.5847733,2.3092788 3.2006331 0 1 0.12594,0.13938 1.5847733,2.3092788 3.2006331 0 1 2.12985,-0.49944 1.5847733,2.3092788 3.2006331 0 1 0.201,0.24037 1.5847733,2.3092788 3.2006331 0 1 0.12133,-0.29947 1.5847733,2.3092788 3.2006331 0 1 1.3726,-1.04024 1.5847733,2.3092788 3.2006331 0 1 0.84309,0.37876 1.5847733,2.3092788 3.2006331 0 1 0.65752,1.81255 h 7.12723 c 2.03103,0 3.66591,-1.56638 3.66591,-3.51231 v -9.11497 c 0,-1.94593 -1.63488,-3.5123 -3.66591,-3.5123 h -35.84078 a 2.8486988,6.4576477 11.997192 0 1 -3.06084,0.83437 2.8486988,6.4576477 11.997192 0 1 -0.30074,-0.43197 3.8757492,6.6217588 20.687857 0 1 -5.05292,1.69286 3.8757492,6.6217588 20.687857 0 1 -0.69657,-0.83732 2.8486988,6.4576477 11.997192 0 1 -2.598181,0.29652 2.8486988,6.4576477 11.997192 0 1 -0.73256,-1.55446 H 26.178987 a 1.5847733,2.3092788 3.2006331 0 1 -0.183014,0.49992 1.5847733,2.3092788 3.2006331 0 1 -2.216208,0.66198 1.5847733,2.3092788 3.2006331 0 1 -0.469356,-0.7526 1.5847733,2.3092788 3.2006331 0 1 -0.04061,0.0906 1.5847733,2.3092788 3.2006331 0 1 -1.957111,0.86343 1.5847733,2.3092788 3.2006331 0 1 -0.01696,0.0375 1.5847733,2.3092788 3.2006331 0 1 -2.215694,0.66147 1.5847733,2.3092788 3.2006331 0 1 -0.649799,-2.06226 z"
       id="rect1017"
       inkscape:connector-curvature="0" />
    <path
       style="opacity:1;vector-effect:none;fill:#9c6037;fill-opacity:1;fill-rule:nonzero;stroke:none;stroke-width:0.79374993;stroke-linecap:round;stroke-linejoin:round;stroke-miterlimit:4;stroke-dasharray:none;stroke-dashoffset:0;stroke-opacity:1;paint-order:normal"
       d="m 4.0627928,280.4635 c -2.0310415,0 -3.66591963,1.56638 -3.66591963,3.51232 v 0.12214 a 3.1491203,2.431745 0 0 1 0.32901256,-0.0138 3.1491203,2.431745 0 0 1 3.14926717,2.43168 3.1491203,2.431745 0 0 1 -0.7526162,1.57662 3.1491203,2.431745 0 0 1 1.4106414,2.02582 3.1491203,2.431745 0 0 1 -1.8121396,2.19871 3.1491203,2.431745 0 0 1 0.3079352,1.04369 3.1491203,2.431745 0 0 1 -1.6383798,2.13369 c 0.6679004,0.68165 1.6148438,1.1087 2.6721989,1.1087 H 46.885319 a 2.3052192,3.3219649 63.75917 0 1 2.346273,-1.35103 2.3052192,3.3219649 63.75917 0 1 2.832077,0.72453 2.3052192,3.3219649 63.75917 0 1 1.49238,-0.63439 2.3052192,3.3219649 63.75917 0 1 1.939118,0.0759 3.2784064,2.3358475 44.530857 0 1 1.250761,-0.97424 3.2784064,2.3358475 44.530857 0 1 0.520253,-0.0488 3.2784064,2.3358475 44.530857 0 1 3.315828,2.20805 h 58.758561 a 3.0192329,2.5363587 81.885796 0 1 2.10516,-2.09723 3.0192329,2.5363587 81.885796 0 1 2.33496,1.22347 3.0192329,2.5363587 81.885796 0 1 1.04924,-0.41275 3.0192329,2.5363587 81.885796 0 1 0.74799,0.0502 3.0192329,2.5363587 81.885796 0 1 1.97819,-1.67119 3.0192329,2.5363587 81.885796 0 1 0.25345,-0.0128 3.0192329,2.5363587 81.885796 0 1 2.35809,1.75 3.0192329,2.5363587 81.885796 0 1 1.33661,-0.65656 3.0192329,2.5363587 81.885796 0 1 2.65061,1.82683 h 14.71149 c 2.03104,0 3.66592,-1.56636 3.66592,-3.5123 v -9.11496 c 0,-1.94594 -1.63488,-3.51231 -3.66592,-3.51231 h -36.7944 a 3.0192329,2.5363587 81.885796 0 1 -2.03885,1.84505 3.0192329,2.5363587 81.885796 0 1 -2.3144,-1.19047 3.0192329,2.5363587 81.885796 0 1 -1.63375,1.0102 3.0192329,2.5363587 81.885796 0 1 -2.11905,-0.92942 3.0192329,2.5363587 81.885796 0 1 -1.64146,1.01956 3.0192329,2.5363587 81.885796 0 1 -2.619246,-1.75492 z"
       id="rect1108"
       inkscape:connector-curvature="0" />
    <path
       style="opacity:1;vector-effect:none;fill:#9c6037;fill-opacity:1;fill-rule:nonzero;stroke:none;stroke-width:0.79374999;stroke-linecap:round;stroke-linejoin:round;stroke-miterlimit:4;stroke-dasharray:none;stroke-dashoffset:0;stroke-opacity:1;paint-order:normal"
       d="m 5.9325333,177.84297 a 3.8113184,3.7827154 0 0 1 0.1188832,0.91859 3.8113184,3.7827154 0 0 1 -3.0832419,3.70981 3.8113184,3.7827154 0 0 1 -0.9042322,0.9447 3.8113184,3.7827154 0 0 1 0.034996,0.47924 3.8113184,3.7827154 0 0 1 -3.1702169,3.72854 3.8113184,3.7827154 0 0 1 0.064845,0.68463 3.8113184,3.7827154 0 0 1 -1.809494,3.21384 c 0.4650949,1.4287 1.85329299,2.46023 3.50319259,2.46023 H 52.82138 a 2.4938255,3.7827154 0 0 1 1.742076,-1.08063 2.4938255,3.7827154 0 0 1 1.738987,1.08063 h 0.238279 a 3.0584654,3.7827154 0 0 1 2.728138,-2.07163 3.0584654,3.7827154 0 0 1 2.69314,1.99775 2.4938255,3.7827154 0 0 1 1.918085,-1.36729 2.4938255,3.7827154 0 0 1 1.955138,1.44117 h 79.814327 c 2.03327,0 3.66994,-1.56636 3.66994,-3.5123 v -7.04088 a 2.4767415,3.8088076 24.421074 0 1 -0.0978,-0.0295 2.4767415,3.8088076 24.421074 0 1 -1.24082,-2.71143 3.0360568,3.8106348 26.202878 0 1 -2.77857,0.45757 3.0360568,3.8106348 26.202878 0 1 -1.64738,-2.17457 2.4767415,3.8088076 24.421074 0 1 -3.09971,1.38798 2.4767415,3.8088076 24.421074 0 1 -1.24904,-2.51639 h -29.97708 a 3.772982,4.1032569 80.775458 0 1 -3.87837,2.25584 3.772982,4.1032569 80.775458 0 1 -2.84393,-1.16191 3.772982,4.1032569 80.77546 0 1 -2.33186,0.62159 3.772982,4.1032569 80.77546 0 1 -2.606168,-0.9442 3.772982,4.1032569 80.77546 0 1 -2.099234,0.49352 3.772982,4.1032569 80.77546 0 1 -2.940686,-1.26484 z"
       id="rect923"
       inkscape:connector-curvature="0" />
  </g>
  <g
     inkscape:groupmode="layer"
     id="layer2"
     inkscape:label="Layer 2"
     style="display:inline;opacity:0.27700004;filter:url(#filter910)">
    <path
       id="path842"
       d="M 28.679688,0 A 18.909004,16.098206 52.466219 0 1 26.162109,22.923828 18.909004,16.098206 52.466219 0 1 10.748047,24.523438 11.25,8.3928571 0 0 1 3.8652344,29.597656 11.25,13.214286 0 0 1 5.3574219,36.142578 11.25,13.214286 0 0 1 0,47.378906 v 2.69336 C 0,57.788694 6.2113056,64 13.927734,64 H 165.12109 a 13.214286,11.25 52.466219 0 1 3.79297,-6.550781 13.214286,11.25 52.466219 0 1 16.97071,3.625 13.214286,11.25 52.466219 0 1 0.48828,0.695312 15.715456,13.379375 86.656869 0 1 10.74609,-7.74414 15.715456,13.379375 86.656869 0 1 12.40039,7.871093 14.15513,16.732302 75.268777 0 1 17.71875,-5.605468 A 14.15513,16.732302 75.268777 0 1 237.59375,64 h 307.70117 a 9.4002283,11.041538 18.366998 0 1 10.86328,-4.408203 9.4002283,11.041538 18.366998 0 1 4.28711,3.306641 13.214286,11.25 81.198599 0 1 6.26953,-6.134766 15.618547,13.29687 60.260916 0 1 5.74414,-15.074219 A 15.618547,13.29687 60.260916 0 1 578,40.1875 V 13.927734 C 578,6.2113056 571.78869,0 564.07227,0 H 457.80664 a 11.25,13.214286 18.366998 0 1 -14.29102,7.6132812 11.25,13.214286 18.366998 0 1 -4.35546,-2.953125 9.8626714,11.584725 18.366998 0 1 -7.98828,1.2265626 9.8626714,11.584725 18.366998 0 1 -2.99219,-1.7539063 12.020739,14.119598 18.366997 0 1 -11.37891,2.7324219 12.020739,14.119598 18.366997 0 1 -1.33203,-0.5625 A 10.016819,11.765787 18.366998 0 1 403.9707,10.880859 10.016819,11.765787 18.366998 0 1 397.5,0 Z"
       style="opacity:1;vector-effect:none;fill:#ffffff;fill-opacity:1;fill-rule:nonzero;stroke:none;stroke-width:2.05392694;stroke-linecap:round;stroke-linejoin:round;stroke-miterlimit:4;stroke-dasharray:none;stroke-dashoffset:0;stroke-opacity:1;paint-order:normal;filter:url(#filter866)"
       transform="matrix(0.26321007,0,0,0.25218099,-0.17009112,-26.250446)"
       inkscape:connector-curvature="0"
       clip-path="url(#clipPath935)" />
    <path
       id="path1050"
       d="M 13.927734,0 C 6.2113056,0 0,6.2113056 0,13.927734 V 49.439453 A 11.25,7.4999999 0 0 1 3.75,49 a 11.25,7.4999999 0 0 1 11.224609,6.994141 9.4642855,8.3928571 0 0 1 3.417969,-0.566407 9.4642855,8.3928571 0 0 1 6.994141,2.751954 9.4642855,8.3928571 0 0 1 7.648437,-3.464844 A 9.4642855,8.3928571 0 0 1 42.5,63.107422 9.4642855,8.3928571 0 0 1 42.435547,64 H 504.07812 a 9.4642855,8.3928571 0 0 1 8.95704,-5.714844 9.4642855,8.3928571 0 0 1 4.66406,1.095703 11.249999,12.321428 36.353347 0 1 9.80078,-4.65625 11.249999,12.321428 36.353347 0 1 6.05469,2.03125 A 11.249999,12.321428 36.353347 0 1 537.76758,64 h 26.30469 C 571.78869,64 578,57.788694 578,50.072266 v -20.06836 a 9.4642855,8.3928571 0 0 1 -5.5,-7.611328 9.4642855,8.3928571 0 0 1 0.30078,-2.058594 A 11.249999,12.321428 36.353347 0 1 567.875,18.386719 11.249999,12.321428 36.353347 0 1 563.73047,7.4121094 9.4642855,8.3928571 0 0 1 557.52734,0 H 122.48242 a 9.4642855,8.3928571 0 0 1 -9.44726,7.9277344 9.4642855,8.3928571 0 0 1 -6.75,-2.5117188 A 11.249999,12.321428 36.353347 0 1 90.732422,7.6738281 11.249999,12.321428 36.353347 0 1 87.810547,4.3417969 9.4642855,8.3928571 0 0 1 87.322266,4.3574219 9.4642855,8.3928571 0 0 1 79.023438,0 Z"
       style="opacity:1;vector-effect:none;fill:#ffffff;fill-opacity:1;fill-rule:nonzero;stroke:none;stroke-width:3.08089018;stroke-linecap:round;stroke-linejoin:round;stroke-miterlimit:4;stroke-dasharray:none;stroke-dashoffset:0;stroke-opacity:1;paint-order:normal;filter:url(#filter1075)"
       transform="matrix(0.26321007,0,0,0.25218109,-2.2758221,-49.716164)"
       inkscape:connector-curvature="0"
       clip-path="url(#clipPath1098)" />
    <path
       inkscape:connector-curvature="0"
       style="opacity:1;vector-effect:none;fill:#ffffff;fill-opacity:1;fill-rule:nonzero;stroke:none;stroke-width:0.81515241;stroke-linecap:round;stroke-linejoin:round;stroke-miterlimit:4;stroke-dasharray:none;stroke-dashoffset:0;stroke-opacity:1;paint-order:normal;filter:url(#filter905)"
       d="M 3.6850463,0 C 1.6434079,0 0,1.6434079 0,3.6850463 V 4.4927491 A 3.5413209,2.0045213 41.521858 0 1 0.68833008,5.0182984 3.5413209,2.0045213 41.521858 0 1 2.01073,8.8666423 3.5413209,2.0045213 41.521858 0 1 1.8985921,8.9730956 3.5413209,2.0045213 0 0 1 2.2391398,9.8262736 3.5413209,2.0045213 0 0 1 0,11.688692 v 1.559595 c 0,2.041638 1.6434079,3.685046 3.6850463,3.685046 H 49.067805 a 1.5932318,2.422561 2.8583021 0 1 0.165364,-0.451652 1.5932318,2.422561 2.8583021 0 1 1.5782,-1.067118 5.6523877,3.4324099 54.609856 0 1 1.846916,-1.103292 5.6523877,3.4324099 54.609856 0 1 2.835484,0.993738 5.6523877,3.4324099 54.609856 0 1 1.565796,-0.716235 5.6523877,3.4324099 54.609856 0 1 4.307748,2.344559 h 72.974357 a 1.5932318,2.422561 2.8583021 0 1 0.0305,-0.0739 1.5932318,2.422561 2.8583021 0 1 2.22777,-0.694015 1.5932318,2.422561 2.8583021 0 1 0.12661,0.146245 1.5932318,2.422561 2.8583021 0 1 2.14095,-0.523999 1.5932318,2.422561 2.8583021 0 1 0.20206,0.252181 1.5932318,2.422561 2.8583021 0 1 0.12195,-0.314193 1.5932318,2.422561 2.8583021 0 1 1.37976,-1.091406 1.5932318,2.422561 2.8583021 0 1 0.8475,0.397392 1.5932318,2.422561 2.8583021 0 1 0.66094,1.901692 h 7.16442 c 2.04164,0 3.68505,-1.643408 3.68505,-3.685046 V 3.6850463 C 152.92917,1.6434079 151.28576,0 149.24412,0 H 113.21635 A 2.8685559,6.7634419 11.28934 0 1 110.13953,0.87539877 2.8685559,6.7634419 11.28934 0 1 109.83722,0.42219644 3.9153317,6.9130653 19.124069 0 1 104.75795,2.1983154 3.9153317,6.9130653 19.124069 0 1 104.05773,1.3198161 2.8685559,6.7634419 11.28934 0 1 101.446,1.6309082 2.8685559,6.7634419 11.28934 0 1 100.70962,0 H 27.816389 A 1.5932318,2.422561 2.8583021 0 1 27.632422,0.52451579 1.5932318,2.422561 2.8583021 0 1 25.404651,1.219047 1.5932318,2.422561 2.8583021 0 1 24.932845,0.42943116 1.5932318,2.422561 2.8583021 0 1 24.892021,0.52451579 1.5932318,2.422561 2.8583021 0 1 22.924699,1.4304036 1.5932318,2.422561 2.8583021 0 1 22.907646,1.4696777 1.5932318,2.422561 2.8583021 0 1 20.680391,2.1636922 1.5932318,2.422561 2.8583021 0 1 20.027201,0 Z"
       id="rect1017-4"
       clip-path="url(#clipPath913)"
       transform="matrix(0.99480959,0,0,0.953125,-1.4929838,-76.1433)" />
    <path
       inkscape:connector-curvature="0"
       style="opacity:1;vector-effect:none;fill:#ffffff;fill-opacity:1;fill-rule:nonzero;stroke:none;stroke-width:0.81470603;stroke-linecap:round;stroke-linejoin:round;stroke-miterlimit:4;stroke-dasharray:none;stroke-dashoffset:0;stroke-opacity:1;paint-order:normal;filter:url(#filter999)"
       d="M 8.9519081,0 A 3.827009,3.9687505 0 0 1 9.0712807,0.96376545 3.827009,3.9687505 0 0 1 5.9753456,4.8560344 3.827009,3.9687505 0 0 1 5.0673908,5.8471882 3.827009,3.9687505 0 0 1 5.1025307,6.35 3.827009,3.9687505 0 0 1 1.9192626,10.261906 3.827009,3.9687505 0 0 1 1.984375,10.980208 3.827009,3.9687505 0 0 1 0.16743164,14.352096 c 0.46700961,1.49897 1.86092266,2.581237 3.51761446,2.581237 H 56.03379 a 2.5040922,3.9687505 0 0 1 1.749248,-1.133781 2.5040922,3.9687505 0 0 1 1.746146,1.133781 h 0.239261 a 3.0710566,3.9687505 0 0 1 2.739368,-2.173511 3.0710566,3.9687505 0 0 1 2.704227,2.095997 2.5040922,3.9687505 0 0 1 1.925982,-1.434538 2.5040922,3.9687505 0 0 1 1.963187,1.512052 h 80.142911 c 2.04164,0 3.68505,-1.643408 3.68505,-3.685046 V 5.861141 a 2.5040922,3.9687505 22.233615 0 1 -0.0982,-0.031006 2.5040922,3.9687505 22.233615 0 1 -1.24592,-2.8447875 3.0710566,3.9687505 22.233615 0 1 -2.79001,0.480074 3.0710566,3.9687505 22.233615 0 1 -1.65416,-2.2815144 2.5040922,3.9687505 22.233615 0 1 -3.11247,1.4562418 A 2.5040922,3.9687505 22.233615 0 1 142.77423,0 h -30.10049 a 3.9496696,4.129401 71.662982 0 1 -3.89433,2.3667806 3.9496696,4.129401 71.662982 0 1 -2.85564,-1.219047 3.9496696,4.129401 71.662985 0 1 -2.34146,0.6521565 3.9496696,4.129401 71.662985 0 1 -2.6169,-0.99063716 A 3.9496696,4.129401 71.662985 0 1 98.857534,1.3270508 3.9496696,4.129401 71.662985 0 1 95.904741,0 Z"
       id="rect923-6"
       clip-path="url(#clipPath1007)"
       transform="matrix(0.99590005,0,0,0.95312502,-2.9826725,-102.22366)" />
    <path
       inkscape:connector-curvature="0"
       style="opacity:1;vector-effect:none;fill:#ffffff;fill-opacity:1;fill-rule:nonzero;stroke:none;stroke-width:0.81515247;stroke-linecap:round;stroke-linejoin:round;stroke-miterlimit:4;stroke-dasharray:none;stroke-dashoffset:0;stroke-opacity:1;paint-order:normal;filter:url(#filter1082)"
       d="M 3.6850463,0 C 1.6434079,0 0,1.6434079 0,3.6850463 V 3.8132038 A 3.1655507,2.5513393 0 0 1 0.33072917,3.7987346 3.1655507,2.5513393 0 0 1 3.4964275,6.35 3.1655507,2.5513393 0 0 1 2.7398845,8.0041625 3.1655507,2.5513393 0 0 1 4.1578858,10.129614 3.1655507,2.5513393 0 0 1 2.3362915,12.43645 3.1655507,2.5513393 0 0 1 2.6458333,13.531474 3.1655507,2.5513393 0 0 1 0.99890543,15.770097 c 0.67138507,0.71517 1.62326917,1.163236 2.68614087,1.163236 H 46.730997 a 2.3963157,3.3703379 60.780628 0 1 2.358514,-1.417484 2.3963157,3.3703379 60.780628 0 1 2.846853,0.76016 2.3963157,3.3703379 60.780628 0 1 1.500166,-0.665592 2.3963157,3.3703379 60.780628 0 1 1.949236,0.07958 3.3703379,2.3963157 48.272786 0 1 1.257287,-1.022159 3.3703379,2.3963157 48.272786 0 1 0.522967,-0.05116 3.3703379,2.3963157 48.272786 0 1 3.333129,2.316654 h 59.065131 a 3.1655507,2.5513393 83.493299 0 1 2.11615,-2.200382 3.1655507,2.5513393 83.493299 0 1 2.34714,1.283642 3.1655507,2.5513393 83.493299 0 1 1.05472,-0.433048 3.1655507,2.5513393 83.493299 0 1 0.75189,0.05271 3.1655507,2.5513393 83.493299 0 1 1.98851,-1.753382 3.1655507,2.5513393 83.493299 0 1 0.25476,-0.01343 3.1655507,2.5513393 83.493299 0 1 2.3704,1.836064 3.1655507,2.5513393 83.493299 0 1 1.34359,-0.688847 3.1655507,2.5513393 83.493299 0 1 2.66444,1.916678 h 14.78824 c 2.04164,0 3.68505,-1.643408 3.68505,-3.685046 V 3.6850463 C 152.92917,1.6434079 151.28576,0 149.24412,0 H 112.25775 A 3.1655507,2.5513393 83.493299 0 1 110.20826,1.9357991 3.1655507,2.5513393 83.493299 0 1 107.88179,0.68677978 3.1655507,2.5513393 83.493299 0 1 106.23951,1.7466634 3.1655507,2.5513393 83.493299 0 1 104.10941,0.77152913 3.1655507,2.5513393 83.493299 0 1 102.45938,1.8412313 3.1655507,2.5513393 83.493299 0 1 99.826466,0 Z"
       id="rect1108-9"
       clip-path="url(#clipPath1090)"
       transform="matrix(0.99480966,0,0,0.95312488,0.39687317,0.39687279)" />
  </g>
  <g
     inkscape:groupmode="layer"
     id="layer3"
     inkscape:label="Layer 3"
     style="display:inline">
    <path
       style="opacity:1;vector-effect:none;fill:none;fill-opacity:1;fill-rule:nonzero;stroke:#333333;stroke-width:0.79374999;stroke-linecap:round;stroke-linejoin:round;stroke-miterlimit:4;stroke-dasharray:none;stroke-dashoffset:0;stroke-opacity:1;paint-order:normal"
       d="m 7.3786917,-26.250446 a 4.8585595,4.1586605 44.690315 0 1 -0.6626521,5.780953 4.8585595,4.1586605 44.690315 0 1 -4.0571365,0.403392 2.9611133,2.116519 0 0 1 -1.81162559,1.279621 2.9611133,3.3323918 0 0 1 0.39275879,1.650505 2.9611133,3.3323918 0 0 1 -1.41012742,2.833588 v 0.679215 c 0,1.945936 1.63487822,3.512309 3.66591992,3.512309 H 43.291443 a 3.3953345,2.9062201 44.690316 0 1 0.998348,-1.651982 3.3953345,2.9062201 44.690316 0 1 4.466862,0.914156 3.3953345,2.9062201 44.690316 0 1 0.128521,0.175344 3.9639258,3.5208875 85.442813 0 1 2.828478,-1.952924 3.9639258,3.5208875 85.442813 0 1 3.263908,1.98494 3.577597,4.3943334 78.237652 0 1 4.663753,-1.413593 3.577597,4.3943334 78.237652 0 1 2.725664,1.944059 h 80.990043 a 2.46056,2.7999409 24.125841 0 1 2.85933,-1.111665 2.46056,2.7999409 24.125841 0 1 1.1284,0.833872 3.3369031,2.95711 78.100276 0 1 1.65021,-1.547071 3.9900549,3.4548249 52.78314 0 1 1.51192,-3.801432 3.9900549,3.4548249 52.78314 0 1 1.45845,-0.378763 v -6.622215 c 0,-1.945936 -1.63488,-3.512309 -3.66592,-3.512309 h -27.97019 a 2.9447477,3.3509118 24.12584 0 1 -3.76153,1.919924 2.9447477,3.3509118 24.12584 0 1 -1.14641,-0.744722 2.581607,2.9376836 24.125842 0 1 -2.10259,0.309316 2.581607,2.9376836 24.125842 0 1 -0.78758,-0.442302 3.1464927,3.5804831 24.125839 0 1 -2.99505,0.689065 3.1464927,3.5804831 24.125839 0 1 -0.3506,-0.141852 2.621956,2.9835978 24.125843 0 1 -3.0264,1.154516 2.621956,2.9835978 24.125843 0 1 -1.70315,-2.743945 z"
       id="rect812-0"
       inkscape:connector-curvature="0" />
    <path
       inkscape:connector-curvature="0"
       style="opacity:1;vector-effect:none;fill:none;fill-opacity:1;fill-rule:nonzero;stroke:#333333;stroke-width:0.79374999;stroke-linecap:round;stroke-linejoin:round;stroke-miterlimit:4;stroke-dasharray:none;stroke-dashoffset:0;stroke-opacity:1;paint-order:normal"
       d="m 1.3900977,-49.716164 c -2.03104167,0 -3.6659198,1.566373 -3.6659198,3.512311 v 8.955383 a 2.9611132,1.8913582 0 0 1 0.9870377,-0.110821 2.9611132,1.8913582 0 0 1 2.9544301,1.76379 2.4910952,2.1165198 0 0 1 0.8996438,-0.142837 2.4910952,2.1165198 0 0 1 1.8409283,0.693991 2.4910952,2.1165198 0 0 1 2.0131456,-0.873768 2.4910952,2.1165198 0 0 1 2.4912423,2.116449 2.4910952,2.1165198 0 0 1 -0.01696,0.225091 H 130.40261 a 2.4910952,2.1165198 0 0 1 2.35758,-1.441175 2.4910952,2.1165198 0 0 1 1.22763,0.276316 2.9022797,3.1702191 50.176716 0 1 2.57966,-1.174219 2.9022797,3.1702191 50.176716 0 1 1.59366,0.512243 2.9022797,3.1702191 50.176716 0 1 1.10887,1.826835 h 6.92366 c 2.03104,0 3.66592,-1.566374 3.66592,-3.512311 v -5.060861 a 2.4910952,2.1165198 0 0 1 -1.44766,-1.919433 2.4910952,2.1165198 0 0 1 0.0791,-0.519138 2.9022797,3.1702191 50.176716 0 1 -1.29652,-0.491064 2.9022797,3.1702191 50.176716 0 1 -1.09088,-2.767589 2.4910952,2.1165198 0 0 1 -1.63269,-1.869193 H 29.962784 a 2.4910952,2.1165198 0 0 1 -2.486615,1.999224 2.4910952,2.1165198 0 0 1 -1.776667,-0.633408 2.9022797,3.1702191 50.176716 0 1 -4.093637,0.569378 2.9022797,3.1702191 50.176716 0 1 -0.769067,-0.840275 2.4910952,2.1165198 0 0 1 -0.128521,0.0039 2.4910952,2.1165198 0 0 1 -2.184335,-1.098859 z"
       id="rect812-2-1" />
    <path
       inkscape:connector-curvature="0"
       style="opacity:1;vector-effect:none;fill:none;fill-opacity:1;fill-rule:nonzero;stroke:#333333;stroke-width:0.79374999;stroke-linecap:round;stroke-linejoin:round;stroke-miterlimit:4;stroke-dasharray:none;stroke-dashoffset:0;stroke-opacity:1;paint-order:normal"
       d="m 2.1729356,-76.1433 c -2.03104145,0 -3.6659194,1.566374 -3.6659194,3.51231 v 0.769842 a 3.460292,1.9451497 39.181853 0 1 0.68475735,0.500914 3.460292,1.9451497 39.181853 0 1 1.3155361,3.667953 3.460292,1.9451497 39.181853 0 1 -0.1115559,0.101463 3.52294,1.9105594 0 0 1 0.3387802,0.813185 3.52294,1.9105594 0 0 1 -2.22751775,1.775119 v 1.486488 c 0,1.945937 1.63487795,3.51231 3.6659194,3.51231 H 47.320139 a 1.5847733,2.3092788 3.2006331 0 1 0.164506,-0.430481 1.5847733,2.3092788 3.2006331 0 1 1.570008,-1.017097 5.4703122,3.3628601 52.034771 0 1 1.83733,-1.051575 5.4703122,3.3628601 52.034771 0 1 2.820767,0.947157 5.4703122,3.3628601 52.034771 0 1 1.557668,-0.682662 5.4703122,3.3628601 52.034771 0 1 4.285389,2.234658 H 132.1514 a 1.5847733,2.3092788 3.2006331 0 1 0.0303,-0.07044 1.5847733,2.3092788 3.2006331 0 1 2.21621,-0.661483 1.5847733,2.3092788 3.2006331 0 1 0.12595,0.13939 1.5847733,2.3092788 3.2006331 0 1 2.12984,-0.499437 1.5847733,2.3092788 3.2006331 0 1 0.20101,0.24036 1.5847733,2.3092788 3.2006331 0 1 0.12132,-0.299465 1.5847733,2.3092788 3.2006331 0 1 1.3726,-1.040246 1.5847733,2.3092788 3.2006331 0 1 0.8431,0.378764 1.5847733,2.3092788 3.2006331 0 1 0.65751,1.81255 h 7.12723 c 2.03104,0 3.66592,-1.566373 3.66592,-3.512309 v -9.114962 c -1e-5,-1.945936 -1.63489,-3.51231 -3.66593,-3.51231 h -35.84077 a 2.8486989,6.4576478 11.997192 0 1 -3.06085,0.834365 2.8486989,6.4576478 11.997192 0 1 -0.30074,-0.431959 3.8757493,6.6217588 20.687857 0 1 -5.05291,1.692864 3.8757493,6.6217588 20.687857 0 1 -0.69658,-0.83732 2.8486989,6.4576478 11.997192 0 1 -2.598181,0.29651 2.8486989,6.4576478 11.997192 0 1 -0.73256,-1.55446 H 26.179027 a 1.5847733,2.3092788 3.2006331 0 1 -0.183013,0.49993 1.5847733,2.3092788 3.2006331 0 1 -2.216208,0.661975 1.5847733,2.3092788 3.2006331 0 1 -0.469357,-0.752603 1.5847733,2.3092788 3.2006331 0 1 -0.04061,0.09063 1.5847733,2.3092788 3.2006331 0 1 -1.957111,0.863424 1.5847733,2.3092788 3.2006331 0 1 -0.01696,0.03743 1.5847733,2.3092788 3.2006331 0 1 -2.215695,0.661482 1.5847733,2.3092788 3.2006331 0 1 -0.649799,-2.062269 z"
       id="rect1017-8" />
    <path
       inkscape:connector-curvature="0"
       style="opacity:1;vector-effect:none;fill:none;fill-opacity:1;fill-rule:nonzero;stroke:#333333;stroke-width:0.79374999;stroke-linecap:round;stroke-linejoin:round;stroke-miterlimit:4;stroke-dasharray:none;stroke-dashoffset:0;stroke-opacity:1;paint-order:normal"
       d="m 5.9325333,-102.22366 a 3.8113185,3.7827154 0 0 1 0.1188832,0.91859 3.8113185,3.7827154 0 0 1 -3.083242,3.709818 3.8113185,3.7827154 0 0 1 -0.9042322,0.944693 3.8113185,3.7827154 0 0 1 0.034996,0.479243 3.8113185,3.7827154 0 0 1 -3.1702168,3.728536 3.8113185,3.7827154 0 0 1 0.064845,0.684632 3.8113185,3.7827154 0 0 1 -1.809494,3.21383 c 0.4650949,1.428706 1.85329299,2.460242 3.50319249,2.460242 H 52.821382 a 2.4938255,3.7827154 0 0 1 1.742076,-1.080635 2.4938255,3.7827154 0 0 1 1.738987,1.080635 h 0.23828 a 3.0584654,3.7827154 0 0 1 2.728137,-2.071628 3.0584654,3.7827154 0 0 1 2.693139,1.997748 2.4938255,3.7827154 0 0 1 1.918086,-1.367295 2.4938255,3.7827154 0 0 1 1.955138,1.441175 h 79.814325 c 2.03327,0 3.66994,-1.566373 3.66994,-3.512309 v -7.040875 a 2.4767416,3.8088077 24.421076 0 1 -0.0978,-0.02955 2.4767416,3.8088077 24.421076 0 1 -1.24081,-2.711438 3.0360568,3.8106349 26.202879 0 1 -2.77858,0.45757 3.0360568,3.8106349 26.202879 0 1 -1.64736,-2.174569 2.4767416,3.8088077 24.421076 0 1 -3.09971,1.387981 2.4767416,3.8088077 24.421076 0 1 -1.24904,-2.516391 h -29.97708 a 3.7729821,4.1032569 80.775463 0 1 -3.87836,2.255838 3.7729821,4.1032569 80.775463 0 1 -2.84394,-1.161908 3.772982,4.1032569 80.775464 0 1 -2.33186,0.62159 3.772982,4.1032569 80.775464 0 1 -2.606168,-0.9442 3.772982,4.1032569 80.775464 0 1 -2.099231,0.49353 3.772982,4.1032569 80.775464 0 1 -2.940687,-1.26485 z"
       id="rect923-2" />
    <path
       inkscape:connector-curvature="0"
       style="opacity:1;vector-effect:none;fill:none;fill-opacity:1;fill-rule:nonzero;stroke:#333333;stroke-width:0.79374999;stroke-linecap:round;stroke-linejoin:round;stroke-miterlimit:4;stroke-dasharray:none;stroke-dashoffset:0;stroke-opacity:1;paint-order:normal"
       d="m 4.0627929,0.39687279 c -2.0310416,0 -3.66591973,1.56637291 -3.66591973,3.51230931 V 4.0313322 A 3.1491204,2.431745 0 0 1 0.72588574,4.0175412 3.1491204,2.431745 0 0 1 3.8751531,6.4492158 3.1491204,2.431745 0 0 1 3.1225368,8.0258392 3.1491204,2.431745 0 0 1 4.5331782,10.05166 3.1491204,2.431745 0 0 1 2.7210386,12.250363 3.1491204,2.431745 0 0 1 3.0289737,13.294058 3.1491204,2.431745 0 0 1 1.3905939,15.427745 c 0.6679004,0.681646 1.6148439,1.108709 2.672199,1.108709 H 46.88532 a 2.3052192,3.3219649 63.759171 0 1 2.346273,-1.351039 2.3052192,3.3219649 63.759171 0 1 2.832077,0.724527 2.3052192,3.3219649 63.759171 0 1 1.492379,-0.634392 2.3052192,3.3219649 63.759171 0 1 1.939119,0.07585 3.2784064,2.3358475 44.530856 0 1 1.250761,-0.974245 3.2784064,2.3358475 44.530856 0 1 0.520253,-0.04876 3.2784064,2.3358475 44.530856 0 1 3.315829,2.20806 h 58.758559 a 3.019233,2.5363587 81.885795 0 1 2.10517,-2.097239 3.019233,2.5363587 81.885795 0 1 2.33495,1.223472 3.019233,2.5363587 81.885795 0 1 1.04925,-0.412749 3.019233,2.5363587 81.885795 0 1 0.74799,0.05024 3.019233,2.5363587 81.885795 0 1 1.97819,-1.671192 3.019233,2.5363587 81.885795 0 1 0.25343,-0.0128 3.019233,2.5363587 81.885795 0 1 2.3581,1.749998 3.019233,2.5363587 81.885795 0 1 1.33662,-0.656557 3.019233,2.5363587 81.885795 0 1 2.65061,1.826833 h 14.71148 c 2.03105,0 3.66593,-1.566373 3.66593,-3.512309 V 3.9091821 c 0,-1.9459364 -1.63488,-3.51230931 -3.66593,-3.51230931 h -36.7944 a 3.019233,2.5363587 81.885795 0 1 -2.03885,1.84505831 3.019233,2.5363587 81.885795 0 1 -2.31439,-1.1904714 3.019233,2.5363587 81.885795 0 1 -1.63376,1.0102014 3.019233,2.5363587 81.885795 0 1 -2.11904,-0.9294247 3.019233,2.5363587 81.885795 0 1 -1.64147,1.0195597 3.019233,2.5363587 81.885795 0 1 -2.619244,-1.75492331 z"
       id="rect1108-5" />
  </g>
</svg>
