<?xml version="1.0" encoding="UTF-8" standalone="no"?>
<!-- Created with Inkscape (http://www.inkscape.org/) -->

<svg
   xmlns:dc="http://purl.org/dc/elements/1.1/"
   xmlns:cc="http://creativecommons.org/ns#"
   xmlns:rdf="http://www.w3.org/1999/02/22-rdf-syntax-ns#"
   xmlns:svg="http://www.w3.org/2000/svg"
   xmlns="http://www.w3.org/2000/svg"
   xmlns:sodipodi="http://sodipodi.sourceforge.net/DTD/sodipodi-0.dtd"
   xmlns:inkscape="http://www.inkscape.org/namespaces/inkscape"
   width="2560"
   height="1440"
   viewBox="0 0 677.33331 381.00001"
   version="1.1"
   id="svg8"
   inkscape:version="0.92.3 (2405546, 2018-03-11)"
   sodipodi:docname="background.svg"
   enable-background="new"
   inkscape:export-filename="D:\Dropbox\CuddlyCthulhuCreatives\VideoGames\FetchQuest\Assets\background.png"
   inkscape:export-xdpi="96"
   inkscape:export-ydpi="96">
  <defs
     id="defs2">
    <filter
       inkscape:collect="always"
       style="color-interpolation-filters:sRGB"
       id="filter14124"
       x="-0.056334429"
       width="1.1126689"
       y="-0.10104002"
       height="1.20208">
      <feGaussianBlur
         inkscape:collect="always"
         stdDeviation="2.6458333"
         id="feGaussianBlur14126" />
    </filter>
    <filter
       inkscape:collect="always"
       style="color-interpolation-filters:sRGB"
       id="filter14128"
       x="-0.050413962"
       width="1.1008279"
       y="-0.14791275"
       height="1.2958255">
      <feGaussianBlur
         inkscape:collect="always"
         stdDeviation="2.6458333"
         id="feGaussianBlur14130" />
    </filter>
    <filter
       inkscape:collect="always"
       style="color-interpolation-filters:sRGB"
       id="filter14132"
       x="-0.037709507"
       width="1.075419"
       y="-0.10462057"
       height="1.2092411">
      <feGaussianBlur
         inkscape:collect="always"
         stdDeviation="2.6458333"
         id="feGaussianBlur14134" />
    </filter>
    <filter
       inkscape:collect="always"
       style="color-interpolation-filters:sRGB"
       id="filter14200"
       x="-0.037567348"
       width="1.0751347"
       y="-0.035893407"
       height="1.0717868">
      <feGaussianBlur
         inkscape:collect="always"
         stdDeviation="10"
         id="feGaussianBlur14202" />
    </filter>
    <filter
       inkscape:collect="always"
       style="color-interpolation-filters:sRGB"
       id="filter14204"
       x="-0.23770681"
       width="1.4754136"
       y="-0.32829349"
       height="1.656587">
      <feGaussianBlur
         inkscape:collect="always"
         stdDeviation="2.6458333"
         id="feGaussianBlur14206" />
    </filter>
    <filter
       inkscape:collect="always"
       style="color-interpolation-filters:sRGB"
       id="filter14208"
       x="-0.21644671"
       width="1.4328934"
       y="-0.30241074"
       height="1.6048215">
      <feGaussianBlur
         inkscape:collect="always"
         stdDeviation="2.6458333"
         id="feGaussianBlur14210" />
    </filter>
    <filter
       inkscape:collect="always"
       style="color-interpolation-filters:sRGB"
       id="filter14212"
       x="-0.63080388"
       width="2.2616078"
       y="-0.31294863"
       height="1.6258973">
      <feGaussianBlur
         inkscape:collect="always"
         stdDeviation="2.6458333"
         id="feGaussianBlur14214" />
    </filter>
    <filter
       inkscape:collect="always"
       style="color-interpolation-filters:sRGB"
       id="filter14216"
       x="-0.047762408"
       width="1.0955248"
       y="-0.066731714"
       height="1.1334634">
      <feGaussianBlur
         inkscape:collect="always"
         stdDeviation="2.6458333"
         id="feGaussianBlur14218" />
    </filter>
    <filter
       inkscape:collect="always"
       style="color-interpolation-filters:sRGB"
       id="filter14220"
       x="-0.13919684"
       width="1.2783937"
       y="-0.0690571"
       height="1.1381142">
      <feGaussianBlur
         inkscape:collect="always"
         stdDeviation="2.6458333"
         id="feGaussianBlur14222" />
    </filter>
    <filter
       inkscape:collect="always"
       style="color-interpolation-filters:sRGB"
       id="filter14224"
       x="-0.047762407"
       width="1.0955248"
       y="-0.066731714"
       height="1.1334634">
      <feGaussianBlur
         inkscape:collect="always"
         stdDeviation="2.6458333"
         id="feGaussianBlur14226" />
    </filter>
    <filter
       inkscape:collect="always"
       style="color-interpolation-filters:sRGB"
       id="filter14228"
       x="-0.13919684"
       width="1.2783937"
       y="-0.0690571"
       height="1.1381142">
      <feGaussianBlur
         inkscape:collect="always"
         stdDeviation="2.6458333"
         id="feGaussianBlur14230" />
    </filter>
    <filter
       inkscape:collect="always"
       style="color-interpolation-filters:sRGB"
       id="filter14232"
       x="-0.13748016"
       width="1.2749603"
       y="-0.18537529"
       height="1.3707506">
      <feGaussianBlur
         inkscape:collect="always"
         stdDeviation="2.6458333"
         id="feGaussianBlur14234" />
    </filter>
    <filter
       inkscape:collect="always"
       style="color-interpolation-filters:sRGB"
       id="filter14236"
       x="-0.35833434"
       width="1.7166687"
       y="-0.19164679"
       height="1.3832936">
      <feGaussianBlur
         inkscape:collect="always"
         stdDeviation="2.6458333"
         id="feGaussianBlur14238" />
    </filter>
    <filter
       inkscape:collect="always"
       style="color-interpolation-filters:sRGB"
       id="filter14240"
       x="-0.050550611"
       width="1.1011012"
       y="-0.12246797"
       height="1.2449359">
      <feGaussianBlur
         inkscape:collect="always"
         stdDeviation="2.6458333"
         id="feGaussianBlur14242" />
    </filter>
    <filter
       inkscape:collect="always"
       style="color-interpolation-filters:sRGB"
       id="filter14244"
       x="-0.079727464"
       width="1.1594549"
       y="-0.19474411"
       height="1.3894882">
      <feGaussianBlur
         inkscape:collect="always"
         stdDeviation="2.6458333"
         id="feGaussianBlur14246" />
    </filter>
    <filter
       inkscape:collect="always"
       style="color-interpolation-filters:sRGB"
       id="filter14248"
       x="-0.69032018"
       width="2.3806404"
       y="-0.3456768"
       height="1.6913536">
      <feGaussianBlur
         inkscape:collect="always"
         stdDeviation="2.6458333"
         id="feGaussianBlur14250" />
    </filter>
    <filter
       inkscape:collect="always"
       style="color-interpolation-filters:sRGB"
       id="filter14252"
       x="-0.10245973"
       width="1.2049195"
       y="-0.23240876"
       height="1.4648175">
      <feGaussianBlur
         inkscape:collect="always"
         stdDeviation="2.6458333"
         id="feGaussianBlur14254" />
    </filter>
    <filter
       inkscape:collect="always"
       style="color-interpolation-filters:sRGB"
       id="filter14256"
       x="-0.39426937"
       width="1.7885387"
       y="-0.35225011"
       height="1.7045002">
      <feGaussianBlur
         inkscape:collect="always"
         stdDeviation="2.1671645"
         id="feGaussianBlur14258" />
    </filter>
    <filter
       inkscape:collect="always"
       style="color-interpolation-filters:sRGB"
       id="filter14260"
       x="-0.34890916"
       width="1.6978183"
       y="-0.27181497"
       height="1.5436299">
      <feGaussianBlur
         inkscape:collect="always"
         stdDeviation="2.6458333"
         id="feGaussianBlur14262" />
    </filter>
    <filter
       inkscape:collect="always"
       style="color-interpolation-filters:sRGB"
       id="filter14264"
       x="-0.1569383"
       width="1.3138766"
       y="-0.14309172"
       height="1.2861834">
      <feGaussianBlur
         inkscape:collect="always"
         stdDeviation="2.6458333"
         id="feGaussianBlur14266" />
    </filter>
    <filter
       inkscape:collect="always"
       style="color-interpolation-filters:sRGB"
       id="filter14268"
       x="-0.15922386"
       width="1.3184477"
       y="-0.21183451"
       height="1.423669">
      <feGaussianBlur
         inkscape:collect="always"
         stdDeviation="2.6458333"
         id="feGaussianBlur14270" />
    </filter>
    <filter
       inkscape:collect="always"
       style="color-interpolation-filters:sRGB"
       id="filter14272"
       x="-0.20444989"
       width="1.4088998"
       y="-0.16393163"
       height="1.3278633">
      <feGaussianBlur
         inkscape:collect="always"
         stdDeviation="2.6458333"
         id="feGaussianBlur14274" />
    </filter>
    <filter
       inkscape:collect="always"
       style="color-interpolation-filters:sRGB"
       id="filter14276"
       x="-0.14344632"
       width="1.2868926"
       y="-0.14075834"
       height="1.2815167">
      <feGaussianBlur
         inkscape:collect="always"
         stdDeviation="2.6458333"
         id="feGaussianBlur14278" />
    </filter>
    <filter
       inkscape:collect="always"
       style="color-interpolation-filters:sRGB"
       id="filter14280"
       x="-0.065079231"
       width="1.1301585"
       y="-0.14761884"
       height="1.2952377">
      <feGaussianBlur
         inkscape:collect="always"
         stdDeviation="2.6458333"
         id="feGaussianBlur14282" />
    </filter>
    <filter
       inkscape:collect="always"
       style="color-interpolation-filters:sRGB"
       id="filter14284"
       x="-0.25042764"
       width="1.5008553"
       y="-0.22373831"
       height="1.4474766">
      <feGaussianBlur
         inkscape:collect="always"
         stdDeviation="1.3765155"
         id="feGaussianBlur14286" />
    </filter>
    <filter
       inkscape:collect="always"
       style="color-interpolation-filters:sRGB"
       id="filter14288"
       x="-0.22161629"
       width="1.4432326"
       y="-0.17264846"
       height="1.3452969">
      <feGaussianBlur
         inkscape:collect="always"
         stdDeviation="2.6458333"
         id="feGaussianBlur14290" />
    </filter>
    <filter
       inkscape:collect="always"
       style="color-interpolation-filters:sRGB"
       id="filter14292"
       x="-0.099682334"
       width="1.1993647"
       y="-0.090887399"
       height="1.1817748">
      <feGaussianBlur
         inkscape:collect="always"
         stdDeviation="2.6458333"
         id="feGaussianBlur14294" />
    </filter>
    <filter
       inkscape:collect="always"
       style="color-interpolation-filters:sRGB"
       id="filter14296"
       x="-0.057862791"
       width="1.1157256"
       y="-0.066814196"
       height="1.1336284">
      <feGaussianBlur
         inkscape:collect="always"
         stdDeviation="1.2238854"
         id="feGaussianBlur14298" />
    </filter>
    <filter
       inkscape:collect="always"
       style="color-interpolation-filters:sRGB"
       id="filter14300"
       x="-0.070976596"
       width="1.1419532"
       y="-0.064713954"
       height="1.1294279">
      <feGaussianBlur
         inkscape:collect="always"
         stdDeviation="2.6458333"
         id="feGaussianBlur14302" />
    </filter>
    <filter
       inkscape:collect="always"
       style="color-interpolation-filters:sRGB"
       id="filter14304"
       x="-0.10113404"
       width="1.2022681"
       y="-0.13455066"
       height="1.2691013">
      <feGaussianBlur
         inkscape:collect="always"
         stdDeviation="2.6458333"
         id="feGaussianBlur14306" />
    </filter>
    <filter
       inkscape:collect="always"
       style="color-interpolation-filters:sRGB"
       id="filter14308"
       x="-0.12986022"
       width="1.2597204"
       y="-0.10412405"
       height="1.2082481">
      <feGaussianBlur
         inkscape:collect="always"
         stdDeviation="2.6458333"
         id="feGaussianBlur14310" />
    </filter>
    <filter
       inkscape:collect="always"
       style="color-interpolation-filters:sRGB"
       id="filter14312"
       x="-0.091112747"
       width="1.1822255"
       y="-0.089405356"
       height="1.1788107">
      <feGaussianBlur
         inkscape:collect="always"
         stdDeviation="2.6458333"
         id="feGaussianBlur14314" />
    </filter>
    <filter
       inkscape:collect="always"
       style="color-interpolation-filters:sRGB"
       id="filter14316"
       x="-0.0093750001"
       width="1.01875"
       y="-0.034213329"
       height="1.0684267">
      <feGaussianBlur
         inkscape:collect="always"
         stdDeviation="2.6458333"
         id="feGaussianBlur14318" />
    </filter>
    <filter
       inkscape:collect="always"
       style="color-interpolation-filters:sRGB"
       id="filter14320"
       x="-0.0093750002"
       width="1.01875"
       y="-0.016666666"
       height="1.0333333">
      <feGaussianBlur
         inkscape:collect="always"
         stdDeviation="2.6458333"
         id="feGaussianBlur14322" />
    </filter>
    <filter
       inkscape:collect="always"
       style="color-interpolation-filters:sRGB"
       id="filter14772"
       x="-0.18832751"
       width="1.376655"
       y="-0.19042721"
       height="1.3808544">
      <feGaussianBlur
         inkscape:collect="always"
         stdDeviation="1.6328935"
         id="feGaussianBlur14774" />
    </filter>
    <filter
       inkscape:collect="always"
       style="color-interpolation-filters:sRGB"
       id="filter14776"
       x="-0.23772484"
       width="1.4754497"
       y="-0.24037545"
       height="1.4807509">
      <feGaussianBlur
         inkscape:collect="always"
         stdDeviation="1.6328935"
         id="feGaussianBlur14778" />
    </filter>
    <filter
       inkscape:collect="always"
       style="color-interpolation-filters:sRGB"
       id="filter14780"
       x="-0.25440736"
       width="1.5088147"
       y="-0.25724395"
       height="1.5144879">
      <feGaussianBlur
         inkscape:collect="always"
         stdDeviation="1.6328935"
         id="feGaussianBlur14782" />
    </filter>
    <filter
       inkscape:collect="always"
       style="color-interpolation-filters:sRGB"
       id="filter14784"
       x="-0.18832751"
       width="1.376655"
       y="-0.19042721"
       height="1.3808544">
      <feGaussianBlur
         inkscape:collect="always"
         stdDeviation="1.6328935"
         id="feGaussianBlur14786" />
    </filter>
    <filter
       inkscape:collect="always"
       style="color-interpolation-filters:sRGB"
       id="filter14788"
       x="-0.32224945"
       width="1.6444989"
       y="-0.32584202"
       height="1.651684">
      <feGaussianBlur
         inkscape:collect="always"
         stdDeviation="1.6328935"
         id="feGaussianBlur14790" />
    </filter>
    <filter
       inkscape:collect="always"
       style="color-interpolation-filters:sRGB"
       id="filter14792"
       x="-0.21016264"
       width="1.4203253"
       y="-0.21250577"
       height="1.4250115">
      <feGaussianBlur
         inkscape:collect="always"
         stdDeviation="1.6328935"
         id="feGaussianBlur14794" />
    </filter>
    <filter
       inkscape:collect="always"
       style="color-interpolation-filters:sRGB"
       id="filter14796"
       x="-0.18832751"
       width="1.376655"
       y="-0.19042721"
       height="1.3808544">
      <feGaussianBlur
         inkscape:collect="always"
         stdDeviation="1.6328935"
         id="feGaussianBlur14798" />
    </filter>
    <filter
       inkscape:collect="always"
       style="color-interpolation-filters:sRGB"
       id="filter14800"
       x="-0.23772484"
       width="1.4754497"
       y="-0.24037545"
       height="1.4807509">
      <feGaussianBlur
         inkscape:collect="always"
         stdDeviation="1.6328935"
         id="feGaussianBlur14802" />
    </filter>
    <filter
       inkscape:collect="always"
       style="color-interpolation-filters:sRGB"
       id="filter14804"
       x="-0.32224945"
       width="1.6444989"
       y="-0.32584202"
       height="1.651684">
      <feGaussianBlur
         inkscape:collect="always"
         stdDeviation="1.6328935"
         id="feGaussianBlur14806" />
    </filter>
    <filter
       inkscape:collect="always"
       style="color-interpolation-filters:sRGB"
       id="filter14808"
       x="-0.23772484"
       width="1.4754497"
       y="-0.24037545"
       height="1.4807509">
      <feGaussianBlur
         inkscape:collect="always"
         stdDeviation="1.6328935"
         id="feGaussianBlur14810" />
    </filter>
    <filter
       inkscape:collect="always"
       style="color-interpolation-filters:sRGB"
       id="filter14812"
       x="-0.1559271"
       width="1.3118542"
       y="-0.15766548"
       height="1.315331">
      <feGaussianBlur
         inkscape:collect="always"
         stdDeviation="1.6328935"
         id="feGaussianBlur14814" />
    </filter>
    <filter
       inkscape:collect="always"
       style="color-interpolation-filters:sRGB"
       id="filter14816"
       x="-0.1559271"
       width="1.3118542"
       y="-0.15766548"
       height="1.315331">
      <feGaussianBlur
         inkscape:collect="always"
         stdDeviation="1.6328935"
         id="feGaussianBlur14818" />
    </filter>
    <filter
       inkscape:collect="always"
       style="color-interpolation-filters:sRGB"
       id="filter14820"
       x="-0.32224945"
       width="1.6444989"
       y="-0.32584202"
       height="1.651684">
      <feGaussianBlur
         inkscape:collect="always"
         stdDeviation="1.6328935"
         id="feGaussianBlur14822" />
    </filter>
    <filter
       inkscape:collect="always"
       style="color-interpolation-filters:sRGB"
       id="filter14824"
       x="-0.32224945"
       width="1.6444989"
       y="-0.32584202"
       height="1.651684">
      <feGaussianBlur
         inkscape:collect="always"
         stdDeviation="1.6328935"
         id="feGaussianBlur14826" />
    </filter>
    <filter
       inkscape:collect="always"
       style="color-interpolation-filters:sRGB"
       id="filter14828"
       x="-0.3536883"
       width="1.7073766"
       y="-0.35763154"
       height="1.7152631">
      <feGaussianBlur
         inkscape:collect="always"
         stdDeviation="1.6328935"
         id="feGaussianBlur14830" />
    </filter>
    <filter
       inkscape:collect="always"
       style="color-interpolation-filters:sRGB"
       id="filter14832"
       x="-0.32224934"
       width="1.6444987"
       y="-0.32584202"
       height="1.651684">
      <feGaussianBlur
         inkscape:collect="always"
         stdDeviation="1.6328935"
         id="feGaussianBlur14834" />
    </filter>
  </defs>
  <sodipodi:namedview
     id="base"
     pagecolor="#ffffff"
     bordercolor="#666666"
     borderopacity="1.0"
     inkscape:pageopacity="0.0"
     inkscape:pageshadow="2"
     inkscape:zoom="0.49497475"
     inkscape:cx="1012.6185"
     inkscape:cy="949.29388"
     inkscape:document-units="px"
     inkscape:current-layer="layer9"
     showgrid="false"
     inkscape:pagecheckerboard="true"
     inkscape:window-width="2560"
     inkscape:window-height="1377"
     inkscape:window-x="-8"
     inkscape:window-y="32"
     inkscape:window-maximized="1"
     units="px"
     inkscape:snap-page="true"
     inkscape:snap-global="false"
     showguides="false" />
  <metadata
     id="metadata5">
    <rdf:RDF>
      <cc:Work
         rdf:about="">
        <dc:format>image/svg+xml</dc:format>
        <dc:type
           rdf:resource="http://purl.org/dc/dcmitype/StillImage" />
        <dc:title></dc:title>
      </cc:Work>
    </rdf:RDF>
  </metadata>
  <g
     inkscape:groupmode="layer"
     id="layer9"
     inkscape:label="Layer 3"
     style="opacity:1">
    <rect
       transform="matrix(1.0597812,0,0,1.0597812,-20.245909,77.633339)"
       style="display:inline;opacity:1;vector-effect:none;fill:#8599a1;fill-opacity:1;fill-rule:nonzero;stroke:none;stroke-width:0.79374999;stroke-linecap:round;stroke-linejoin:round;stroke-miterlimit:4;stroke-dasharray:none;stroke-dashoffset:0;stroke-opacity:1;paint-order:normal;filter:url(#filter14320)"
       id="rect4018"
       width="677.33331"
       height="381"
       x="0"
       y="-84.000038" />
    <path
       transform="matrix(1.0597812,0,0,1.0597812,-20.245909,77.633339)"
       style="display:inline;fill:#376437;fill-opacity:1;stroke:none;stroke-width:0.26458332px;stroke-linecap:butt;stroke-linejoin:miter;stroke-opacity:1;filter:url(#filter14316)"
       d="M 0,144.12179 C 213.13157,126.37286 416.62582,102.5662 677.33332,114.72214 l -2e-5,182.27782 H 0 Z"
       id="path4024"
       inkscape:connector-curvature="0"
       sodipodi:nodetypes="ccccc" />
    <path
       style="display:inline;opacity:0.51399997;vector-effect:none;fill:#808080;fill-opacity:1;fill-rule:nonzero;stroke:none;stroke-width:0.79375005;stroke-linecap:round;stroke-linejoin:round;stroke-miterlimit:4;stroke-dasharray:none;stroke-dashoffset:0;stroke-opacity:1;paint-order:normal;filter:url(#filter14312)"
       d="m 224.54167,73.814573 a 7.063721,5.6509766 0 0 0 -5.51373,2.127599 8.0911711,6.5499955 0 0 0 -4.88794,2.123659 4.3666636,4.8803885 0 0 0 -3.30665,4.15988 8.4764643,6.5499955 0 0 0 -4.91478,-1.219761 8.4764643,6.5499955 0 0 0 -8.4757,6.550714 8.4764643,6.5499955 0 0 0 5.46108,6.11268 9.5039151,8.8617585 0 0 0 -3.66324,6.986766 9.5039151,8.8617585 0 0 0 0.20263,1.77599 9.3754838,8.9901896 0 0 0 -1.35881,-0.1063 9.3754838,8.9901896 0 0 0 -9.37562,8.99022 9.3754838,8.9901896 0 0 0 8.3287,8.92965 10.659796,10.01764 0 0 0 -1.69058,3.70693 11.987531,10.534496 0 0 0 -9.80472,10.353 11.987531,10.534496 0 0 0 11.98796,10.5338 11.987531,10.534496 0 0 0 11.92738,-9.48488 10.659796,10.01764 0 0 0 6.99272,-9.39747 10.659796,10.01764 0 0 0 -0.10226,-1.29327 11.430385,9.2470517 0 0 0 0.23045,0.01 11.430385,9.2470517 0 0 0 11.43071,-9.24648 11.430385,9.2470517 0 0 0 -1.26147,-4.22048 9.760777,8.2196019 0 0 0 1.51775,0.11033 9.760777,8.2196019 0 0 0 9.76101,-8.21943 9.760777,8.2196019 0 0 0 -0.15896,-1.46212 11.04509,8.0911711 0 0 0 6.32425,1.46212 11.04509,8.0911711 0 0 0 11.04433,-8.091293 11.04509,8.0911711 0 0 0 -11.04433,-8.091315 11.04509,8.0911711 0 0 0 -0.67146,0.0173 4.8803885,4.7519574 0 0 0 0.15685,-1.174072 4.8803885,4.7519574 0 0 0 -4.14697,-4.691289 5.00882,6.0362702 0 0 0 0.0377,-0.702248 5.00882,6.0362702 0 0 0 -5.00913,-6.0362 5.00882,6.0362702 0 0 0 -3.92348,2.293498 7.063721,5.6509766 0 0 0 -6.09381,-2.807012 z"
       id="path4043"
       inkscape:connector-curvature="0"
       transform="matrix(1.0597812,0,0,1.0597812,-20.245909,-11.388325)" />
    <path
       id="path4087"
       d="m 203.09593,86.824334 a 4.4656389,5.5820491 77.737834 0 0 -3.90068,2.568381 5.1760817,6.3939832 77.737834 0 0 -3.41813,2.460261 3.856688,3.450721 77.737834 0 0 -1.85525,3.767286 5.1760817,6.698458 77.737834 0 0 -3.99998,-0.117058 5.1760817,6.698458 77.737834 0 0 -5.44561,6.481096 5.1760817,6.698458 77.737834 0 0 5.24306,3.80373 7.0029338,7.5103928 77.737834 0 0 -1.65618,6.01008 7.0029338,7.5103928 77.737834 0 0 0.45454,1.33745 7.1044254,7.4089012 77.737834 0 0 -1.06714,0.14608 7.1044254,7.4089012 77.737834 0 0 -5.7311,8.51593 7.1044254,7.4089012 77.737834 0 0 7.93026,5.49772 7.9163601,8.4238189 77.737834 0 0 -0.68334,3.1463 8.3248016,9.4730506 77.737834 0 0 -5.83374,9.6403 8.3248016,9.4730506 77.737834 0 0 11.02523,6.12235 8.3248016,9.4730506 77.737834 0 0 7.61857,-9.3262 7.9163601,8.4238189 77.737834 0 0 3.82262,-8.43048 7.9163601,8.4238189 77.737834 0 0 -0.29612,-0.98149 7.3074086,9.0327702 77.737834 0 0 0.17952,-0.0311 7.3074086,9.0327702 77.737834 0 0 7.27507,-9.05876 7.3074086,9.0327702 77.737834 0 0 -1.68247,-3.04737 6.4954746,7.713376 77.737834 0 0 1.1905,-0.16973 6.4954746,7.713376 77.737834 0 0 6.15808,-7.9854 6.4954746,7.713376 77.737834 0 0 -0.36812,-1.1024 6.3939832,8.7282941 77.737834 0 0 5.12907,0.0677 6.3939832,8.7282941 77.737834 0 0 7.17058,-8.101847 6.3939832,8.7282941 77.737834 0 0 -9.8866,-4.394591 6.3939832,8.7282941 77.737834 0 0 -0.51567,0.125899 3.7551964,3.856688 77.737834 0 0 -0.0759,-0.93296 3.7551964,3.856688 77.737834 0 0 -3.98969,-2.926645 4.7701143,3.95818 77.737834 0 0 -0.0888,-0.548632 4.7701143,3.95818 77.737834 0 0 -4.88121,-3.82051 4.7701143,3.95818 77.737834 0 0 -2.64482,2.429546 4.4656389,5.5820491 77.737834 0 0 -5.17684,-1.144856 z"
       style="display:inline;opacity:0.23999999;vector-effect:none;fill:#ff5555;fill-opacity:1;fill-rule:nonzero;stroke:none;stroke-width:0.79375005;stroke-linecap:round;stroke-linejoin:round;stroke-miterlimit:4;stroke-dasharray:none;stroke-dashoffset:0;stroke-opacity:1;paint-order:normal;filter:url(#filter14308)"
       inkscape:connector-curvature="0"
       transform="matrix(1.0597812,0,0,1.0597812,-20.245909,-11.388325)" />
    <path
       inkscape:connector-curvature="0"
       style="display:inline;opacity:0.23999999;vector-effect:none;fill:#d4aa00;fill-opacity:1;fill-rule:nonzero;stroke:none;stroke-width:0.79375005;stroke-linecap:round;stroke-linejoin:round;stroke-miterlimit:4;stroke-dasharray:none;stroke-dashoffset:0;stroke-opacity:1;paint-order:normal;filter:url(#filter14304)"
       d="m 230.99906,98.612951 a 5.5820491,4.4656389 18.790278 0 0 -4.66651,0.188176 6.3939832,5.1760817 18.790278 0 0 -4.19736,0.344541 3.450721,3.856688 18.790278 0 0 -3.53264,2.270432 6.698458,5.1760817 18.790278 0 0 -3.36638,-2.163562 6.698458,5.1760817 18.790278 0 0 -8.00832,2.743372 6.698458,5.1760817 18.790278 0 0 2.52965,5.96312 7.5103928,7.0029338 18.790278 0 0 -4.51897,4.2945 7.5103928,7.0029338 18.790278 0 0 -0.30049,1.38026 7.4089012,7.1044254 18.790278 0 0 -0.98957,-0.42531 7.4089012,7.1044254 18.790278 0 0 -9.3025,4.33933 7.4089012,7.1044254 18.790278 0 0 3.95796,8.80047 8.4238189,7.9163601 18.790278 0 0 -2.20835,2.34295 9.4730506,8.3248016 18.790278 0 0 -9.97042,5.24963 9.4730506,8.3248016 18.790278 0 0 6.28723,10.93204 9.4730506,8.3248016 18.790278 0 0 11.33746,-4.05989 8.4238189,7.9163601 18.790278 0 0 7.62345,-5.25055 8.4238189,7.9163601 18.790278 0 0 0.25258,-0.99359 9.0327702,7.3074086 18.790278 0 0 0.16992,0.0659 9.0327702,7.3074086 18.790278 0 0 10.90523,-4.00795 9.0327702,7.3074086 18.790278 0 0 0.13051,-3.47853 7.713376,6.4954746 18.790278 0 0 1.10743,0.46869 7.713376,6.4954746 18.790278 0 0 9.39465,-3.66458 7.713376,6.4954746 18.790278 0 0 0.25328,-1.13431 8.7282941,6.3939832 18.790278 0 0 4.35915,2.70364 8.7282941,6.3939832 18.790278 0 0 10.32211,-3.24206 8.7282941,6.3939832 18.790278 0 0 -6.20298,-8.86457 8.7282941,6.3939832 18.790278 0 0 -0.5067,-0.15819 3.856688,3.7551964 18.790278 0 0 0.41624,-0.83841 3.856688,3.7551964 18.790278 0 0 -1.90832,-4.56522 3.95818,4.7701143 18.790278 0 0 0.20691,-0.51582 3.95818,4.7701143 18.790278 0 0 -2.211,-5.79084 3.95818,4.7701143 18.790278 0 0 -3.51902,0.71713 5.5820491,4.4656389 18.790278 0 0 -3.84444,-3.651137 z"
       id="path4113"
       transform="matrix(1.0597812,0,0,1.0597812,-20.245909,-11.388325)" />
    <rect
       style="display:inline;opacity:1;vector-effect:none;fill:#de8787;fill-opacity:1;fill-rule:nonzero;stroke:none;stroke-width:0.79374999;stroke-linecap:round;stroke-linejoin:round;stroke-miterlimit:4;stroke-dasharray:none;stroke-dashoffset:0;stroke-opacity:1;paint-order:normal;filter:url(#filter14300)"
       id="rect4026"
       width="89.46611"
       height="98.124123"
       x="31.803858"
       y="187.88181"
       transform="matrix(1.0597812,0,0,1.0597812,-20.245909,-11.388325)" />
    <path
       sodipodi:type="star"
       style="display:inline;opacity:1;vector-effect:none;fill:#666666;fill-opacity:1;fill-rule:nonzero;stroke:none;stroke-width:0.3671656;stroke-linecap:round;stroke-linejoin:round;stroke-miterlimit:4;stroke-dasharray:none;stroke-dashoffset:0;stroke-opacity:1;paint-order:normal;filter:url(#filter14296)"
       id="path4028"
       sodipodi:sides="3"
       sodipodi:cx="150.20547"
       sodipodi:cy="96.013268"
       sodipodi:r1="29.308392"
       sodipodi:r2="14.654196"
       sodipodi:arg1="0.52359878"
       sodipodi:arg2="1.5707963"
       inkscape:flatsided="false"
       inkscape:rounded="0"
       inkscape:randomized="0"
       d="m 175.58729,110.66746 -25.38181,0 -25.38182,0 12.69091,-21.98129 12.6909,-21.981294 12.69091,21.981293 z"
       inkscape:transform-center-x="1.2469855e-005"
       inkscape:transform-center-y="-13.44325"
       transform="matrix(2.8609064,0,0,1.8347304,-368.8573,-10.097815)" />
    <path
       style="display:inline;opacity:1;vector-effect:none;fill:#ff9955;fill-opacity:1;fill-rule:nonzero;stroke:none;stroke-width:0.79375005;stroke-linecap:round;stroke-linejoin:round;stroke-miterlimit:4;stroke-dasharray:none;stroke-dashoffset:0;stroke-opacity:1;paint-order:normal;filter:url(#filter14292)"
       d="m 149.31591,170.97711 v 69.86667 h 63.70236 v -11.10194 l -16.87493,-14.82974 2.5428,-14.89333 -4.72206,-7.62843 2.10576,-21.41323 z"
       id="rect4033"
       inkscape:connector-curvature="0"
       transform="matrix(1.0597812,0,0,1.0597812,-20.245909,-11.388325)" />
    <path
       style="display:inline;opacity:0.59500002;fill:#ff2a2a;stroke:none;stroke-width:0.26458332px;stroke-linecap:butt;stroke-linejoin:miter;stroke-opacity:1;filter:url(#filter14288)"
       d="m 182.20652,143.50723 c 2.53651,-4.51588 -2.53068,-6.72269 1.9071,-11.17021 0.0911,9.56581 5.30644,7.50733 5.13105,11.17019 1.72547,-0.54488 2.08873,-4.22287 2.08873,-4.22287 2.76984,4.26829 -1.36225,6.53866 1.04435,10.03503 1.18059,-4.22289 4.26829,-4.81319 4.26829,-4.81319 -2.81526,5.85754 1.226,4.54075 1.2714,9.98962 1.90712,-2.13415 4.35911,-1.27141 3.58719,-6.1754 5.08563,3.54176 -0.31784,9.12686 2.67903,12.71404 0.90588,-1.82177 2.71481,-2.78381 2.81524,-2.54279 -2.45199,5.53969 3.63261,8.89983 -3.36012,10.62531 l -19.97923,-3.99585 -5.17643,-14.98442 c 0,0 3.99584,-3.67798 3.7234,-6.62946 z"
       id="path4115"
       inkscape:connector-curvature="0"
       sodipodi:nodetypes="cccccccccccccc"
       transform="matrix(1.0597812,0,0,1.0597812,-20.245909,-11.388325)" />
    <path
       sodipodi:type="inkscape:offset"
       inkscape:radius="-0.80594903"
       inkscape:original="M -117.55078 152.79688 C -119.85957 155.11074 -117.22333 156.258 -118.54297 158.60742 C -118.40123 160.14295 -120.48047 162.05664 -120.48047 162.05664 L -117.78711 169.85352 L -107.39258 171.93164 C -103.75456 171.03395 -106.9202 169.28637 -105.64453 166.4043 C -105.69678 166.27891 -106.63809 166.77877 -107.10938 167.72656 C -108.66852 165.8603 -105.85611 162.95591 -108.50195 161.11328 C -108.10035 163.66462 -109.37695 163.21391 -110.36914 164.32422 C -110.39276 161.4894 -112.49591 162.17634 -111.03125 159.12891 C -111.03125 159.12891 -112.63774 159.43582 -113.25195 161.63281 C -114.504 159.8138 -112.35389 158.63272 -113.79492 156.41211 C -113.79492 156.41211 -113.98317 158.32394 -114.88086 158.60742 C -114.78961 156.70179 -117.50338 157.77356 -117.55078 152.79688 z "
       style="display:inline;opacity:0.59500002;fill:#ffdd55;stroke:none;stroke-width:0.13765155px;stroke-linecap:butt;stroke-linejoin:miter;stroke-opacity:1;filter:url(#filter14284)"
       id="path4117"
       d="m -117.48633,156.32812 c 0.1337,0.68836 0.14072,1.49169 -0.29492,2.42579 0.008,1.05158 -0.51982,1.95128 -1.0332,2.63671 -0.36981,0.49375 -0.54304,0.63542 -0.75196,0.84376 l 2.39063,6.91992 9.71094,1.93945 c 0.6395,-0.186 0.99097,-0.3895 1.04101,-0.46094 0.0559,-0.0798 0.0752,-0.18071 0,-0.5664 -0.0745,-0.38251 -0.25113,-0.94722 -0.31836,-1.625 a 0.80602963,0.80602963 0 0 1 -0.98633,-0.19727 c -0.53216,-0.63699 -0.69314,-1.40657 -0.68945,-2.08398 0.004,-0.67742 0.13833,-1.30192 0.22266,-1.86719 0.0444,-0.29791 0.007,-0.50911 0.0117,-0.76172 -0.0786,0.0981 -0.11186,0.25899 -0.19727,0.33398 -0.58623,0.51471 -1.04116,0.60941 -1.38672,0.9961 a 0.80602963,0.80602963 0 0 1 -1.4082,-0.53125 c -0.0101,-1.21758 -0.35058,-1.41853 -0.76953,-2.10156 -0.13965,-0.22768 -0.19866,-0.60146 -0.27344,-0.94532 -0.0878,0.18448 -0.18907,0.32054 -0.25781,0.56641 a 0.80602963,0.80602963 0 0 1 -1.43946,0.24023 c -0.39719,-0.57705 -0.55675,-1.1946 -0.55273,-1.73437 0.004,-0.49925 0.1225,-0.90692 0.2168,-1.27539 -0.13751,0.0939 -0.20367,0.23711 -0.38672,0.29492 a 0.80602963,0.80602963 0 0 1 -1.04688,-0.80664 c 0.0139,-0.28938 -0.003,-0.26693 -0.14062,-0.40625 -0.13766,-0.13932 -0.47237,-0.35217 -0.8711,-0.70313 -0.2814,-0.24769 -0.53509,-0.69909 -0.78906,-1.13086 z"
       transform="matrix(2.0370308,0,0,2.0370308,414.32843,-182.39199)" />
    <path
       style="display:inline;opacity:1;vector-effect:none;fill:#808080;fill-opacity:1;fill-rule:nonzero;stroke:none;stroke-width:0.79375005;stroke-linecap:round;stroke-linejoin:round;stroke-miterlimit:4;stroke-dasharray:none;stroke-dashoffset:0;stroke-opacity:1;paint-order:normal;filter:url(#filter14280)"
       d="m 171.1056,131.4692 -14.3321,15.92036 -24.3931,27.09583 h 48.78718 48.78619 l -31.26763,-14.42548 -11.62441,0.72708 2.17927,-11.62441 z"
       id="path4035"
       inkscape:connector-curvature="0"
       transform="matrix(1.0597812,0,0,1.0597812,-20.245909,-11.388325)" />
    <path
       inkscape:connector-curvature="0"
       id="path4127"
       d="m 639.73723,103.4625 a 4.4866558,3.5893245 0 0 0 -3.50215,1.35138 5.1392601,4.1603533 0 0 0 -3.10467,1.34889 2.7735688,3.0998709 0 0 0 -2.10028,2.64222 5.3839863,4.1603533 0 0 0 -3.12171,-0.77475 5.3839863,4.1603533 0 0 0 -5.3835,4.16081 5.3839863,4.1603533 0 0 0 3.46871,3.88258 6.0365911,5.6287132 0 0 0 -2.32678,4.43778 6.0365911,5.6287132 0 0 0 0.1287,1.12805 5.9550155,5.7102887 0 0 0 -0.86307,-0.0675 5.9550155,5.7102887 0 0 0 -5.9551,5.71031 5.9550155,5.7102887 0 0 0 5.29013,5.67184 6.7707707,6.3628932 0 0 0 -1.07381,2.35452 7.6141066,6.691184 0 0 0 -6.22765,6.5759 7.6141066,6.691184 0 0 0 7.61438,6.69075 7.6141066,6.691184 0 0 0 7.5759,-6.0245 6.7707707,6.3628932 0 0 0 4.44156,-5.96898 6.7707707,6.3628932 0 0 0 -0.0649,-0.82145 7.2602248,5.8734395 0 0 0 0.14637,0.006 7.2602248,5.8734395 0 0 0 7.26043,-5.87307 7.2602248,5.8734395 0 0 0 -0.80124,-2.68072 6.1997418,5.2208353 0 0 0 0.96402,0.0701 6.1997418,5.2208353 0 0 0 6.19989,-5.22073 6.1997418,5.2208353 0 0 0 -0.10096,-0.92869 7.0154974,5.1392601 0 0 0 4.01696,0.92869 7.0154974,5.1392601 0 0 0 7.01502,-5.13934 7.0154974,5.1392601 0 0 0 -7.01502,-5.13935 7.0154974,5.1392601 0 0 0 -0.42649,0.011 3.0998709,3.0182955 0 0 0 0.0996,-0.74573 3.0998709,3.0182955 0 0 0 -2.63403,-2.97976 3.1814466,3.834051 0 0 0 0.0239,-0.44605 3.1814466,3.834051 0 0 0 -3.18164,-3.83401 3.1814466,3.834051 0 0 0 -2.49208,1.45676 4.4866558,3.5893245 0 0 0 -3.87059,-1.78292 z"
       style="display:inline;opacity:0.51399997;vector-effect:none;fill:#808080;fill-opacity:1;fill-rule:nonzero;stroke:none;stroke-width:0.79375005;stroke-linecap:round;stroke-linejoin:round;stroke-miterlimit:4;stroke-dasharray:none;stroke-dashoffset:0;stroke-opacity:1;paint-order:normal;filter:url(#filter14276)"
       transform="matrix(1.0597812,0,0,1.0597812,-20.245909,-11.388325)" />
    <path
       inkscape:connector-curvature="0"
       style="display:inline;opacity:0.23999999;vector-effect:none;fill:#ff5555;fill-opacity:1;fill-rule:nonzero;stroke:none;stroke-width:0.79375005;stroke-linecap:round;stroke-linejoin:round;stroke-miterlimit:4;stroke-dasharray:none;stroke-dashoffset:0;stroke-opacity:1;paint-order:normal;filter:url(#filter14272)"
       d="m 626.11556,111.72589 a 2.8364349,3.5455439 77.737834 0 0 -2.47759,1.63136 3.287686,4.0612591 77.737834 0 0 -2.17109,1.56268 2.4496482,2.1917906 77.737834 0 0 -1.17839,2.39286 3.287686,4.2546521 77.737834 0 0 -2.54067,-0.0744 3.287686,4.2546521 77.737834 0 0 -3.45888,4.11659 3.287686,4.2546521 77.737834 0 0 3.33023,2.41601 4.4480456,4.7703678 77.737834 0 0 -1.05195,3.81742 4.4480456,4.7703678 77.737834 0 0 0.28871,0.84951 4.5125099,4.7059035 77.737834 0 0 -0.67782,0.0928 4.5125099,4.7059035 77.737834 0 0 -3.64021,5.40906 4.5125099,4.7059035 77.737834 0 0 5.03705,3.49198 5.0282256,5.3505476 77.737834 0 0 -0.43404,1.99843 5.2876549,6.0169869 77.737834 0 0 -3.70541,6.12321 5.2876549,6.0169869 77.737834 0 0 7.00289,3.88873 5.2876549,6.0169869 77.737834 0 0 4.83908,-5.92371 5.0282256,5.3505476 77.737834 0 0 2.42801,-5.35478 5.0282256,5.3505476 77.737834 0 0 -0.18809,-0.62341 4.6414385,5.7373345 77.737834 0 0 0.11402,-0.0197 4.6414385,5.7373345 77.737834 0 0 4.6209,-5.75385 4.6414385,5.7373345 77.737834 0 0 -1.06865,-1.93559 4.1257233,4.8992964 77.737834 0 0 0.75617,-0.10781 4.1257233,4.8992964 77.737834 0 0 3.91142,-5.07208 4.1257233,4.8992964 77.737834 0 0 -0.23382,-0.70021 4.0612591,5.5439408 77.737834 0 0 3.25783,0.043 4.0612591,5.5439408 77.737834 0 0 4.55453,-5.14605 4.0612591,5.5439408 77.737834 0 0 -6.27966,-2.7913 4.0612591,5.5439408 77.737834 0 0 -0.32754,0.08 2.3851839,2.4496482 77.737834 0 0 -0.0482,-0.59258 2.3851839,2.4496482 77.737834 0 0 -2.53413,-1.85892 3.0298282,2.5141128 77.737834 0 0 -0.0564,-0.34847 3.0298282,2.5141128 77.737834 0 0 -3.10039,-2.42667 3.0298282,2.5141128 77.737834 0 0 -1.67991,1.54317 2.8364349,3.5455439 77.737834 0 0 -3.28817,-0.72718 z"
       id="path4129"
       transform="matrix(1.0597812,0,0,1.0597812,-20.245909,-11.388325)" />
    <path
       id="path4131"
       d="m 643.83876,119.21366 a 3.5455439,2.8364349 18.790278 0 0 -2.96402,0.11952 4.0612591,3.287686 18.790278 0 0 -2.66603,0.21884 2.1917906,2.4496482 18.790278 0 0 -2.24382,1.44211 4.2546521,3.287686 18.790278 0 0 -2.13822,-1.37423 4.2546521,3.287686 18.790278 0 0 -5.08664,1.74251 4.2546521,3.287686 18.790278 0 0 1.60676,3.78759 4.7703678,4.4480456 18.790278 0 0 -2.87031,2.72773 4.7703678,4.4480456 18.790278 0 0 -0.19086,0.8767 4.7059035,4.5125099 18.790278 0 0 -0.62855,-0.27015 4.7059035,4.5125099 18.790278 0 0 -5.90866,2.75621 4.7059035,4.5125099 18.790278 0 0 2.51398,5.58979 5.3505476,5.0282256 18.790278 0 0 -1.40268,1.48816 6.0169869,5.2876549 18.790278 0 0 -6.3329,3.3344 6.0169869,5.2876549 18.790278 0 0 3.99345,6.94369 6.0169869,5.2876549 18.790278 0 0 7.20121,-2.57871 5.3505476,5.0282256 18.790278 0 0 4.84217,-3.33499 5.3505476,5.0282256 18.790278 0 0 0.16043,-0.63109 5.7373345,4.6414385 18.790278 0 0 0.10793,0.0418 5.7373345,4.6414385 18.790278 0 0 6.92666,-2.54572 5.7373345,4.6414385 18.790278 0 0 0.0829,-2.20945 4.8992964,4.1257233 18.790278 0 0 0.70341,0.29769 4.8992964,4.1257233 18.790278 0 0 5.96719,-2.32762 4.8992964,4.1257233 18.790278 0 0 0.16087,-0.72048 5.5439408,4.0612591 18.790278 0 0 2.7688,1.71727 5.5439408,4.0612591 18.790278 0 0 6.55628,-2.05926 5.5439408,4.0612591 18.790278 0 0 -3.93994,-5.6305 5.5439408,4.0612591 18.790278 0 0 -0.32184,-0.10048 2.4496482,2.3851839 18.790278 0 0 0.26438,-0.53253 2.4496482,2.3851839 18.790278 0 0 -1.2121,-2.89968 2.5141128,3.0298282 18.790278 0 0 0.13142,-0.32764 2.5141128,3.0298282 18.790278 0 0 -1.40436,-3.67816 2.5141128,3.0298282 18.790278 0 0 -2.23517,0.4555 3.5455439,2.8364349 18.790278 0 0 -2.44187,-2.31909 z"
       style="display:inline;opacity:0.23999999;vector-effect:none;fill:#d4aa00;fill-opacity:1;fill-rule:nonzero;stroke:none;stroke-width:0.79375005;stroke-linecap:round;stroke-linejoin:round;stroke-miterlimit:4;stroke-dasharray:none;stroke-dashoffset:0;stroke-opacity:1;paint-order:normal;filter:url(#filter14268)"
       inkscape:connector-curvature="0"
       transform="matrix(1.0597812,0,0,1.0597812,-20.245909,-11.388325)" />
    <path
       inkscape:connector-curvature="0"
       id="path4133"
       d="m 650.23426,167.067 v 44.37713 H 609.7725 v -7.05161 l 10.71843,-9.41939 -1.6151,-9.45977 2.9993,-4.84535 -1.33751,-13.60101 z"
       style="display:inline;opacity:1;vector-effect:none;fill:#ac9d93;fill-opacity:1;fill-rule:nonzero;stroke:none;stroke-width:0.79375005;stroke-linecap:round;stroke-linejoin:round;stroke-miterlimit:4;stroke-dasharray:none;stroke-dashoffset:0;stroke-opacity:1;paint-order:normal;filter:url(#filter14264)"
       transform="matrix(1.0597812,0,0,1.0597812,-20.245909,-11.388325)" />
    <path
       sodipodi:nodetypes="cccccccccccccc"
       inkscape:connector-curvature="0"
       id="path4135"
       d="m 629.34317,149.61898 c -1.61111,-2.86834 1.60741,-4.27004 -1.21133,-7.09497 -0.0579,6.07591 -3.37049,4.76843 -3.25909,7.09496 -1.09596,-0.34609 -1.32669,-2.68223 -1.32669,-2.68223 -1.75932,2.71108 0.86526,4.15315 -0.66334,6.37393 -0.74987,-2.68224 -2.71109,-3.05718 -2.71109,-3.05718 1.78817,3.72052 -0.77871,2.88414 -0.80755,6.34509 -1.21134,-1.35554 -2.76877,-0.80756 -2.27847,-3.92242 -3.23023,2.24962 0.20188,5.7971 -1.70164,8.07556 -0.57538,-1.15713 -1.72436,-1.76819 -1.78815,-1.6151 1.55743,3.51864 -2.30732,5.6529 2.13424,6.74887 l 12.69019,-2.53804 3.28791,-9.51764 c 0,0 -2.53804,-2.33614 -2.36499,-4.21083 z"
       style="display:inline;opacity:0.59500002;fill:#ff2a2a;stroke:none;stroke-width:0.26458332px;stroke-linecap:butt;stroke-linejoin:miter;stroke-opacity:1;filter:url(#filter14260)"
       transform="matrix(1.0597812,0,0,1.0597812,-20.245909,-11.388325)" />
    <path
       transform="matrix(-1.2938586,0,0,1.2938586,493.34257,-58.041604)"
       d="m -117.48633,156.32812 c 0.1337,0.68836 0.14072,1.49169 -0.29492,2.42579 0.008,1.05158 -0.51982,1.95128 -1.0332,2.63671 -0.36981,0.49375 -0.54304,0.63542 -0.75196,0.84376 l 2.39063,6.91992 9.71094,1.93945 c 0.6395,-0.186 0.99097,-0.3895 1.04101,-0.46094 0.0559,-0.0798 0.0752,-0.18071 0,-0.5664 -0.0745,-0.38251 -0.25113,-0.94722 -0.31836,-1.625 a 0.80602963,0.80602963 0 0 1 -0.98633,-0.19727 c -0.53216,-0.63699 -0.69314,-1.40657 -0.68945,-2.08398 0.004,-0.67742 0.13833,-1.30192 0.22266,-1.86719 0.0444,-0.29791 0.007,-0.50911 0.0117,-0.76172 -0.0786,0.0981 -0.11186,0.25899 -0.19727,0.33398 -0.58623,0.51471 -1.04116,0.60941 -1.38672,0.9961 a 0.80602963,0.80602963 0 0 1 -1.4082,-0.53125 c -0.0101,-1.21758 -0.35058,-1.41853 -0.76953,-2.10156 -0.13965,-0.22768 -0.19866,-0.60146 -0.27344,-0.94532 -0.0878,0.18448 -0.18907,0.32054 -0.25781,0.56641 a 0.80602963,0.80602963 0 0 1 -1.43946,0.24023 c -0.39719,-0.57705 -0.55675,-1.1946 -0.55273,-1.73437 0.004,-0.49925 0.1225,-0.90692 0.2168,-1.27539 -0.13751,0.0939 -0.20367,0.23711 -0.38672,0.29492 a 0.80602963,0.80602963 0 0 1 -1.04688,-0.80664 c 0.0139,-0.28938 -0.003,-0.26693 -0.14062,-0.40625 -0.13766,-0.13932 -0.47237,-0.35217 -0.8711,-0.70313 -0.2814,-0.24769 -0.53509,-0.69909 -0.78906,-1.13086 z"
       id="path4137"
       style="display:inline;opacity:0.59500002;fill:#ffdd55;stroke:none;stroke-width:0.21671645px;stroke-linecap:butt;stroke-linejoin:miter;stroke-opacity:1;filter:url(#filter14256)"
       inkscape:original="M -117.55078 152.79688 C -119.85957 155.11074 -117.22333 156.258 -118.54297 158.60742 C -118.40123 160.14295 -120.48047 162.05664 -120.48047 162.05664 L -117.78711 169.85352 L -107.39258 171.93164 C -103.75456 171.03395 -106.9202 169.28637 -105.64453 166.4043 C -105.69678 166.27891 -106.63809 166.77877 -107.10938 167.72656 C -108.66852 165.8603 -105.85611 162.95591 -108.50195 161.11328 C -108.10035 163.66462 -109.37695 163.21391 -110.36914 164.32422 C -110.39276 161.4894 -112.49591 162.17634 -111.03125 159.12891 C -111.03125 159.12891 -112.63774 159.43582 -113.25195 161.63281 C -114.504 159.8138 -112.35389 158.63272 -113.79492 156.41211 C -113.79492 156.41211 -113.98317 158.32394 -114.88086 158.60742 C -114.78961 156.70179 -117.50338 157.77356 -117.55078 152.79688 z "
       inkscape:radius="-0.80594903"
       sodipodi:type="inkscape:offset" />
    <path
       inkscape:connector-curvature="0"
       id="path4139"
       d="m 636.39413,141.9728 9.1033,10.11212 15.49374,17.21043 h -30.9881 -30.98747 l 19.86023,-9.16262 7.38346,0.46182 -1.3842,-7.38346 z"
       style="display:inline;opacity:1;vector-effect:none;fill:#808080;fill-opacity:1;fill-rule:nonzero;stroke:none;stroke-width:0.79375005;stroke-linecap:round;stroke-linejoin:round;stroke-miterlimit:4;stroke-dasharray:none;stroke-dashoffset:0;stroke-opacity:1;paint-order:normal;filter:url(#filter14252)"
       transform="matrix(1.0597812,0,0,1.0597812,-20.245909,-11.388325)" />
    <path
       style="display:inline;opacity:1;vector-effect:none;fill:#6f462a;fill-opacity:1;fill-rule:nonzero;stroke:none;stroke-width:0.79375005;stroke-linecap:round;stroke-linejoin:round;stroke-miterlimit:4;stroke-dasharray:none;stroke-dashoffset:0;stroke-opacity:1;paint-order:normal;filter:url(#filter14248)"
       d="m 350.00895,180.05331 7.50128,-0.0599 c -0.27521,6.10363 -0.89959,12.21005 0.9948,18.29636 l -9.19863,0.0734 c 1.94467,-5.92706 1.22421,-12.12872 0.70255,-18.30991 z"
       id="path4200"
       inkscape:connector-curvature="0"
       sodipodi:nodetypes="ccccc"
       transform="matrix(1.0597812,0,0,1.0597812,-20.245909,-11.388325)" />
    <path
       style="display:inline;fill:#ac9d93;fill-opacity:1;stroke:none;stroke-width:0.26458332px;stroke-linecap:butt;stroke-linejoin:miter;stroke-opacity:1;filter:url(#filter14244)"
       d="m 306.29087,207.27481 1.06908,-10.15625 9.08716,-10.15624 1.06908,-12.2944 13.89803,16.03617 4.2763,-10.15624 22.45064,5.34539 8.01809,-2.13815 2.67269,8.55262 16.03618,2.13816 1.06908,10.69078 z"
       id="path4141"
       inkscape:connector-curvature="0"
       transform="matrix(1.0597812,0,0,1.0597812,-20.245909,-11.388325)" />
    <path
       style="display:inline;fill:#de8787;fill-opacity:1;stroke:none;stroke-width:0.26458332px;stroke-linecap:butt;stroke-linejoin:miter;stroke-opacity:1;filter:url(#filter14240)"
       d="m 447.40919,261.26325 125.61668,-1.06908 -4.27633,-32.07234 -17.10523,-18.70887 2.13815,31.00327 -15.50165,-12.2944 -1.60361,-17.63979 -22.45063,2.67269 -0.53454,16.03617 -27.2615,-4.81085 -8.55261,9.08717 -1.0691,7.48355 -16.57069,-11.75987 -9.08717,-2.13815 z"
       id="path4143"
       inkscape:connector-curvature="0"
       transform="matrix(1.0597812,0,0,1.0597812,-20.245909,-11.388325)" />
    <path
       style="display:inline;opacity:1;vector-effect:none;fill:#6f462a;fill-opacity:1;fill-rule:nonzero;stroke:none;stroke-width:0.79374999;stroke-linecap:round;stroke-linejoin:round;stroke-miterlimit:4;stroke-dasharray:none;stroke-dashoffset:0;stroke-opacity:1;paint-order:normal;filter:url(#filter14236)"
       d="m 253.16234,183.47918 12.96438,-1.34826 c 0.53673,10.60258 0.47003,21.26792 4.7565,31.48054 l -15.89788,1.65333 c 2.38004,-10.57419 0.10492,-21.18113 -1.823,-31.78561 z"
       id="rect4147"
       inkscape:connector-curvature="0"
       sodipodi:nodetypes="ccccc"
       transform="matrix(1.0597812,0,0,1.0597812,-20.245909,-11.388325)" />
    <path
       style="display:inline;opacity:1;vector-effect:none;fill:#778b26;fill-opacity:1;fill-rule:nonzero;stroke:none;stroke-width:0.79374999;stroke-linecap:round;stroke-linejoin:round;stroke-miterlimit:4;stroke-dasharray:none;stroke-dashoffset:0;stroke-opacity:1;paint-order:normal;filter:url(#filter14232)"
       d="m 254.5718,158.51414 a 9.0323069,10.599135 84.062745 0 0 -9.15532,6.54591 11.98163,12.811128 84.062745 0 0 -0.72315,0.0412 11.98163,12.811128 84.062745 0 0 -11.50324,13.24233 11.98163,12.811128 84.062745 0 0 10.01317,10.41787 7.5576441,7.465478 84.062745 0 0 7.32156,3.90298 7.5576441,7.465478 84.062745 0 0 5.87621,-4.09655 9.1244731,10.138303 84.062745 0 0 2.69199,0.0547 9.1244731,10.138303 84.062745 0 0 0.0834,-0.0117 4.8848187,6.9124796 84.062745 0 0 6.32557,1.93952 4.8848187,6.9124796 84.062745 0 0 6.36999,-5.5734 4.8848187,6.9124796 84.062745 0 0 -0.13727,-0.64223 5.8064828,6.5438139 84.062745 0 0 1.64794,0.0217 5.8064828,6.5438139 84.062745 0 0 5.90816,-6.45223 5.8064828,6.5438139 84.062745 0 0 -2.10381,-3.70601 6.5438139,7.1889788 84.062745 0 0 1.75762,-4.96832 6.5438139,7.1889788 84.062745 0 0 -7.65487,-5.77524 3.9631547,4.9769854 84.062745 0 0 -5.32076,-3.1609 3.9631547,4.9769854 84.062745 0 0 -2.62611,0.91491 9.0323069,10.599135 84.062745 0 0 -8.77117,-2.69489 z"
       id="path4149"
       inkscape:connector-curvature="0"
       transform="matrix(1.0597812,0,0,1.0597812,-20.245909,-11.388325)" />
    <path
       sodipodi:nodetypes="ccccc"
       inkscape:connector-curvature="0"
       id="path4188"
       d="m 594.66838,257.91647 -37.20116,1.06186 c 2.47008,30.21109 6.67179,60.37276 -1.61791,90.89103 l 45.61885,-1.30213 c -10.715,-29.03329 -8.26648,-59.9108 -6.79978,-90.65076 z"
       style="display:inline;opacity:1;vector-effect:none;fill:#6f462a;fill-opacity:1;fill-rule:nonzero;stroke:none;stroke-width:0.79375005;stroke-linecap:round;stroke-linejoin:round;stroke-miterlimit:4;stroke-dasharray:none;stroke-dashoffset:0;stroke-opacity:1;paint-order:normal;filter:url(#filter14228)"
       transform="matrix(1.0597812,0,0,1.0597812,-20.245909,-11.388325)" />
    <path
       inkscape:connector-curvature="0"
       id="path4190"
       d="m 572.63947,171.40396 a 25.789608,30.263314 88.365019 0 1 28.37581,15.08254 34.2107,36.579135 88.365019 0 1 2.06227,-0.15542 34.2107,36.579135 88.365019 0 1 37.54082,33.15245 34.2107,36.579135 88.365019 0 1 -24.4211,33.25388 21.579059,21.315901 88.365019 0 1 -19.25414,13.80163 21.579059,21.315901 88.365019 0 1 -18.17321,-9.38376 26.052768,28.947518 88.365019 0 1 -7.59869,1.16768 26.052768,28.947518 88.365019 0 1 -0.24027,-0.001 13.947441,19.736945 88.365019 0 1 -17.1739,7.86959 13.947441,19.736945 88.365019 0 1 -20.12641,-13.37803 13.947441,19.736945 88.365019 0 1 0.14694,-1.86942 16.579033,18.684307 88.365019 0 1 -4.65613,0.68148 16.579033,18.684307 88.365019 0 1 -19.14994,-16.03919 16.579033,18.684307 88.365019 0 1 4.56017,-11.28089 18.684307,20.526423 88.365019 0 1 -6.8441,-13.40084 18.684307,20.526423 88.365019 0 1 19.49312,-19.22622 11.315847,14.2106 88.365019 0 1 13.87038,-10.94844 11.315847,14.2106 88.365019 0 1 7.7771,1.6014 25.789608,30.263314 88.365019 0 1 23.81163,-10.9277 z"
       style="display:inline;opacity:1;vector-effect:none;fill:#6a9a2a;fill-opacity:1;fill-rule:nonzero;stroke:none;stroke-width:0.79375005;stroke-linecap:round;stroke-linejoin:round;stroke-miterlimit:4;stroke-dasharray:none;stroke-dashoffset:0;stroke-opacity:1;paint-order:normal;filter:url(#filter14224)"
       transform="matrix(1.0597812,0,0,1.0597812,-20.245909,-11.388325)" />
    <path
       style="display:inline;opacity:1;vector-effect:none;fill:#6f462a;fill-opacity:1;fill-rule:nonzero;stroke:none;stroke-width:0.79375005;stroke-linecap:round;stroke-linejoin:round;stroke-miterlimit:4;stroke-dasharray:none;stroke-dashoffset:0;stroke-opacity:1;paint-order:normal;filter:url(#filter14220)"
       d="m 156.216,279.08314 -37.20116,1.06186 c 2.47008,30.21109 6.67179,60.37276 -1.61791,90.89103 l 45.61885,-1.30213 c -10.715,-29.03329 -8.26648,-59.9108 -6.79978,-90.65076 z"
       id="path4192"
       inkscape:connector-curvature="0"
       sodipodi:nodetypes="ccccc"
       transform="matrix(1.0597812,0,0,1.0597812,-20.245909,-11.388325)" />
    <path
       style="display:inline;opacity:1;vector-effect:none;fill:#89a02c;fill-opacity:1;fill-rule:nonzero;stroke:none;stroke-width:0.79375005;stroke-linecap:round;stroke-linejoin:round;stroke-miterlimit:4;stroke-dasharray:none;stroke-dashoffset:0;stroke-opacity:1;paint-order:normal;filter:url(#filter14216)"
       d="m 134.18709,192.57063 a 25.789608,30.263314 88.365019 0 1 28.37581,15.08254 34.2107,36.579135 88.365019 0 1 2.06227,-0.15542 34.2107,36.579135 88.365019 0 1 37.54082,33.15245 34.2107,36.579135 88.365019 0 1 -24.4211,33.25388 21.579059,21.315901 88.365019 0 1 -19.25414,13.80163 21.579059,21.315901 88.365019 0 1 -18.17321,-9.38376 26.052768,28.947518 88.365019 0 1 -7.59869,1.16768 26.052768,28.947518 88.365019 0 1 -0.24027,-10e-4 13.947441,19.736945 88.365019 0 1 -17.1739,7.86959 13.947441,19.736945 88.365019 0 1 -20.126409,-13.37803 13.947441,19.736945 88.365019 0 1 0.14694,-1.86942 16.579033,18.684307 88.365019 0 1 -4.65613,0.68148 16.579033,18.684307 88.365019 0 1 -19.14994,-16.03919 16.579033,18.684307 88.365019 0 1 4.56017,-11.28089 18.684307,20.526423 88.365019 0 1 -6.8441,-13.40084 18.684307,20.526423 88.365019 0 1 19.49312,-19.22622 11.315847,14.2106 88.365019 0 1 13.870379,-10.94844 11.315847,14.2106 88.365019 0 1 7.7771,1.6014 25.789608,30.263314 88.365019 0 1 23.81163,-10.9277 z"
       id="path4194"
       inkscape:connector-curvature="0"
       transform="matrix(1.0597812,0,0,1.0597812,-20.245909,-11.388325)" />
    <path
       sodipodi:nodetypes="ccccc"
       inkscape:connector-curvature="0"
       id="path4196"
       d="m 439.22785,179.89992 8.20902,0.23432 c -0.54506,6.66655 -1.47223,13.32221 0.35702,20.05655 l -10.06652,-0.28734 c 2.36443,-6.40665 1.82413,-13.22027 1.50048,-20.00353 z"
       style="display:inline;opacity:1;vector-effect:none;fill:#6f462a;fill-opacity:1;fill-rule:nonzero;stroke:none;stroke-width:0.79375005;stroke-linecap:round;stroke-linejoin:round;stroke-miterlimit:4;stroke-dasharray:none;stroke-dashoffset:0;stroke-opacity:1;paint-order:normal;filter:url(#filter14212)"
       transform="matrix(1.0597812,0,0,1.0597812,-20.245909,-11.388325)" />
    <path
       inkscape:connector-curvature="0"
       id="path4198"
       d="m 444.08888,160.80956 a 6.6780814,5.6908871 1.634981 0 0 -6.26158,3.3282 8.0717677,7.5491349 1.634981 0 0 -0.45507,-0.0343 8.0717677,7.5491349 1.634981 0 0 -8.28398,7.31561 8.0717677,7.5491349 1.634981 0 0 5.38891,7.338 4.7036925,4.7617625 1.634981 0 0 4.24873,3.04555 4.7036925,4.7617625 1.634981 0 0 4.01021,-2.07068 6.3877301,5.7489575 1.634981 0 0 1.67677,0.25767 6.3877301,5.7489575 1.634981 0 0 0.053,-2.2e-4 4.3552707,3.0777246 1.634981 0 0 3.78969,1.73655 4.3552707,3.0777246 1.634981 0 0 4.44121,-2.95208 4.3552707,3.0777246 1.634981 0 0 -0.0324,-0.41251 4.1229894,3.6584272 1.634981 0 0 1.02745,0.15038 4.1229894,3.6584272 1.634981 0 0 4.22574,-3.53931 4.1229894,3.6584272 1.634981 0 0 -1.00628,-2.4893 4.5294816,4.1229894 1.634981 0 0 1.51026,-2.95711 4.5294816,4.1229894 1.634981 0 0 -4.30147,-4.24257 3.1357948,2.4970216 1.634981 0 0 -3.06072,-2.41595 3.1357948,2.4970216 1.634981 0 0 -1.71614,0.35337 6.6780814,5.6908871 1.634981 0 0 -5.25441,-2.41137 z"
       style="display:inline;opacity:1;vector-effect:none;fill:#6b7d22;fill-opacity:1;fill-rule:nonzero;stroke:none;stroke-width:0.79375005;stroke-linecap:round;stroke-linejoin:round;stroke-miterlimit:4;stroke-dasharray:none;stroke-dashoffset:0;stroke-opacity:1;paint-order:normal;filter:url(#filter14208)"
       transform="matrix(1.0597812,0,0,1.0597812,-20.245909,-11.388325)" />
    <path
       style="display:inline;opacity:1;vector-effect:none;fill:#58671c;fill-opacity:1;fill-rule:nonzero;stroke:none;stroke-width:0.79375005;stroke-linecap:round;stroke-linejoin:round;stroke-miterlimit:4;stroke-dasharray:none;stroke-dashoffset:0;stroke-opacity:1;paint-order:normal;filter:url(#filter14204)"
       d="m 353.80958,162.4649 a 5.1982906,6.1000345 89.542565 0 0 -5.60478,3.24691 6.8956906,7.3730849 89.542565 0 0 -0.41655,-0.0162 6.8956906,7.3730849 89.542565 0 0 -7.31789,6.9542 6.8956906,7.3730849 89.542565 0 0 5.1639,6.51863 4.3495899,4.2965464 89.542565 0 0 3.97994,2.63839 4.3495899,4.2965464 89.542565 0 0 3.59159,-2.02393 5.2513345,5.8348157 89.542565 0 0 1.53921,0.17925 5.2513345,5.8348157 89.542565 0 0 0.0484,-0.002 2.8113204,3.9782836 89.542565 0 0 3.51726,1.4588 2.8113204,3.9782836 89.542565 0 0 3.95562,-2.84288 2.8113204,3.9782836 89.542565 0 0 -0.0433,-0.37547 3.341758,3.7661083 89.542565 0 0 0.94291,0.10296 3.341758,3.7661083 89.542565 0 0 3.73935,-3.37173 3.341758,3.7661083 89.542565 0 0 -1.00158,-2.23875 3.7661083,4.137415 89.542565 0 0 1.27999,-2.74971 3.7661083,4.137415 89.542565 0 0 -4.06802,-3.7293 2.2808823,2.8643641 89.542565 0 0 -2.8745,-2.10327 2.2808823,2.8643641 89.542565 0 0 -1.55476,0.3798 5.1982906,6.1000345 89.542565 0 0 -4.87681,-2.02594 z"
       id="path4202"
       inkscape:connector-curvature="0"
       transform="matrix(1.0597812,0,0,1.0597812,-20.245909,-11.388325)" />
    <path
       style="display:inline;fill:#333333;stroke:none;stroke-width:0.99999994px;stroke-linecap:butt;stroke-linejoin:miter;stroke-opacity:1;filter:url(#filter14200)"
       d="m 1100.9883,771.35352 c -10.5353,0.70295 -21.0524,1.41602 -31.5625,2.13476 -9.1496,234.47422 -14.3719,450.59132 24.832,666.51172 h 607.5098 C 1492.9639,1318.13 1183.1958,1089.572 1100.9883,771.35352 Z"
       id="path4204"
       transform="matrix(0.28040045,0,0,0.28040045,-20.245909,-11.388325)"
       inkscape:connector-curvature="0" />
    <path
       style="display:inline;fill:#277b27;stroke:none;stroke-width:0.11510121px;stroke-linecap:butt;stroke-linejoin:miter;stroke-opacity:1;fill-opacity:1;filter:url(#filter14772)"
       d="m 185.45686,359.11862 c -4.88209,-4.36073 -9.45633,-8.14871 -8.13888,-15.28948 0.36726,6.57368 4.15796,6.96571 6.62738,10.87123 -1.5115,-2.3254 -0.58135,-5.29028 -3.37182,-9.88293 2.61606,0.98829 4.70892,5.75536 5.46467,8.72023 0,0 -2.26726,-10.34801 1.27897,-14.76626 -0.62438,8.4639 2.3254,10.46428 0.81389,14.18491 0.40694,-3.60437 4.9996,-8.19702 4.9996,-8.19702 -1.39524,4.24384 -2.26726,8.02261 -1.86031,9.35972 3.42995,-0.0581 6.62737,-5.46467 6.62737,-5.46467 -0.34881,6.27856 -3.60436,10.69681 -3.60436,10.69681 z"
       id="path4245"
       inkscape:connector-curvature="0"
       sodipodi:nodetypes="cccccccccccc"
       transform="matrix(1.0597812,0,0,1.0597812,-20.245909,-11.388325)" />
    <path
       sodipodi:nodetypes="cccccccccccc"
       inkscape:connector-curvature="0"
       id="path4247"
       d="m 214.76416,326.02551 c 3.86763,-3.4546 7.49138,-6.45547 6.44768,-12.11244 -0.29094,5.20772 -3.29397,5.51829 -5.25026,8.61227 1.19742,-1.8422 0.46055,-4.191 2.67118,-7.82933 -2.07246,0.78293 -3.73044,4.55944 -4.32915,6.90823 0,0 1.79614,-8.19777 -1.01321,-11.69794 0.49464,6.70516 -1.8422,8.28988 -0.64477,11.23739 -0.32238,-2.85541 -3.96072,-6.49374 -3.96072,-6.49374 1.10532,3.362 1.79614,6.35557 1.47375,7.41484 -2.71723,-0.046 -5.25026,-4.32915 -5.25026,-4.32915 0.27633,4.97392 2.85541,8.47409 2.85541,8.47409 z"
       style="display:inline;fill:#277b27;stroke:none;stroke-width:0.09118407px;stroke-linecap:butt;stroke-linejoin:miter;stroke-opacity:1;fill-opacity:1;filter:url(#filter14776)"
       transform="matrix(1.0597812,0,0,1.0597812,-20.245909,-11.388325)" />
    <path
       style="display:inline;fill:#277b27;stroke:none;stroke-width:0.08520479px;stroke-linecap:butt;stroke-linejoin:miter;stroke-opacity:1;fill-opacity:1;filter:url(#filter14780)"
       d="m 84.230841,327.64121 c 3.614015,-3.22807 7.00014,-6.03216 6.024885,-11.31818 -0.271868,4.86623 -3.07797,5.15643 -4.905982,8.04753 1.118902,-1.7214 0.43035,-3.91618 2.496022,-7.31593 -1.936564,0.73159 -3.485823,4.26046 -4.045275,6.45523 0,0 1.678361,-7.66021 -0.94677,-10.93086 0.462204,6.26548 -1.7214,7.74628 -0.60249,10.50051 -0.301241,-2.66817 -3.701002,-6.06792 -3.701002,-6.06792 1.03284,3.14154 1.678361,5.93881 1.377113,6.92862 -2.539054,-0.043 -4.905975,-4.04527 -4.905975,-4.04527 0.25821,4.64776 2.668162,7.91841 2.668162,7.91841 z"
       id="path4249"
       inkscape:connector-curvature="0"
       sodipodi:nodetypes="cccccccccccc"
       transform="matrix(1.0597812,0,0,1.0597812,-20.245909,-11.388325)" />
    <path
       sodipodi:nodetypes="cccccccccccc"
       inkscape:connector-curvature="0"
       id="path4251"
       d="m 25.09514,348.42784 c -4.88209,-4.36073 -9.45633,-8.14871 -8.13888,-15.28948 0.36726,6.57368 4.15796,6.96571 6.62738,10.87123 -1.5115,-2.3254 -0.58135,-5.29028 -3.37182,-9.88293 2.61606,0.98829 4.70892,5.75536 5.46467,8.72023 0,0 -2.26726,-10.34801 1.27897,-14.76626 -0.62438,8.4639 2.3254,10.46428 0.81389,14.18491 0.40694,-3.60437 4.9996,-8.19702 4.9996,-8.19702 -1.39524,4.24384 -2.26726,8.02261 -1.86031,9.35972 3.42995,-0.0581 6.62737,-5.46467 6.62737,-5.46467 -0.34881,6.27856 -3.60436,10.69681 -3.60436,10.69681 z"
       style="display:inline;fill:#277b27;stroke:none;stroke-width:0.11510121px;stroke-linecap:butt;stroke-linejoin:miter;stroke-opacity:1;fill-opacity:1;filter:url(#filter14784)"
       transform="matrix(1.0597812,0,0,1.0597812,-20.245909,-11.388325)" />
    <path
       style="display:inline;fill:#277b27;stroke:none;stroke-width:0.06726693px;stroke-linecap:butt;stroke-linejoin:miter;stroke-opacity:1;fill-opacity:1;filter:url(#filter14788)"
       d="m 217.54827,268.34362 c 2.85317,-2.54848 5.52642,-4.76223 4.75648,-8.93541 -0.21463,3.84176 -2.42997,4.07087 -3.87314,6.35331 0.88335,-1.359 0.33975,-3.09172 1.97055,-5.77573 -1.52887,0.57757 -2.75197,3.36352 -3.19364,5.09623 0,0 1.32502,-6.04753 -0.74745,-8.62963 0.36489,4.94644 -1.359,6.11549 -0.47565,8.28988 -0.23782,-2.10645 -2.92185,-4.79046 -2.92185,-4.79046 0.8154,2.48016 1.32503,4.68854 1.0872,5.46996 -2.00452,-0.034 -3.87314,-3.19363 -3.87314,-3.19363 0.20385,3.66928 2.10644,6.25138 2.10644,6.25138 z"
       id="path4253"
       inkscape:connector-curvature="0"
       sodipodi:nodetypes="cccccccccccc"
       transform="matrix(1.0597812,0,0,1.0597812,-20.245909,-11.388325)" />
    <path
       sodipodi:nodetypes="cccccccccccc"
       inkscape:connector-curvature="0"
       id="path4255"
       d="m 377.47558,274.6856 c 4.37486,-3.90767 8.47385,-7.30209 7.29328,-13.70096 -0.3291,5.8907 -3.72596,6.242 -5.93882,9.74175 1.35446,-2.0838 0.52095,-4.74064 3.0215,-8.85613 -2.34426,0.88561 -4.21968,5.1574 -4.89691,7.81423 0,0 2.0317,-9.27289 -1.14609,-13.2321 0.55951,7.58453 -2.0838,9.37708 -0.72933,12.71115 -0.36466,-3.22989 -4.48016,-7.34538 -4.48016,-7.34538 1.25028,3.80292 2.0317,7.18909 1.66703,8.38728 -3.07359,-0.0521 -5.93881,-4.89691 -5.93881,-4.89691 0.31257,5.62624 3.22988,9.58545 3.22988,9.58545 z"
       style="display:inline;fill:#277b27;stroke:none;stroke-width:0.10314264px;stroke-linecap:butt;stroke-linejoin:miter;stroke-opacity:1;fill-opacity:1;filter:url(#filter14792)"
       transform="matrix(1.0597812,0,0,1.0597812,-20.245909,-11.388325)" />
    <path
       style="display:inline;fill:#277b27;stroke:none;stroke-width:0.11510121px;stroke-linecap:butt;stroke-linejoin:miter;stroke-opacity:1;fill-opacity:1;filter:url(#filter14796)"
       d="m 446.64268,331.32258 c 4.88209,-4.36073 9.45633,-8.14871 8.13888,-15.28948 -0.36726,6.57368 -4.15796,6.96571 -6.62738,10.87123 1.5115,-2.3254 0.58135,-5.29028 3.37182,-9.88293 -2.61606,0.98829 -4.70892,5.75536 -5.46467,8.72023 0,0 2.26726,-10.34801 -1.27897,-14.76626 0.62438,8.4639 -2.3254,10.46428 -0.81389,14.18491 -0.40694,-3.60437 -4.9996,-8.19702 -4.9996,-8.19702 1.39524,4.24384 2.26726,8.02261 1.86031,9.35972 -3.42995,-0.0581 -6.62737,-5.46467 -6.62737,-5.46467 0.34881,6.27856 3.60436,10.69681 3.60436,10.69681 z"
       id="path4257"
       inkscape:connector-curvature="0"
       sodipodi:nodetypes="cccccccccccc"
       transform="matrix(1.0597812,0,0,1.0597812,-20.245909,-11.388325)" />
    <path
       sodipodi:nodetypes="cccccccccccc"
       inkscape:connector-curvature="0"
       id="path4259"
       d="m 515.69057,316.4038 c -3.86763,-3.4546 -7.49138,-6.45547 -6.44768,-12.11244 0.29094,5.20772 3.29397,5.51829 5.25026,8.61227 -1.19742,-1.8422 -0.46055,-4.191 -2.67118,-7.82933 2.07246,0.78293 3.73044,4.55944 4.32915,6.90823 0,0 -1.79614,-8.19777 1.01321,-11.69794 -0.49464,6.70516 1.8422,8.28988 0.64477,11.23739 0.32238,-2.85541 3.96072,-6.49374 3.96072,-6.49374 -1.10532,3.362 -1.79614,6.35557 -1.47375,7.41484 2.71723,-0.046 5.25026,-4.32915 5.25026,-4.32915 -0.27633,4.97392 -2.85541,8.47409 -2.85541,8.47409 z"
       style="display:inline;fill:#277b27;stroke:none;stroke-width:0.09118407px;stroke-linecap:butt;stroke-linejoin:miter;stroke-opacity:1;fill-opacity:1;filter:url(#filter14800)"
       transform="matrix(1.0597812,0,0,1.0597812,-20.245909,-11.388325)" />
    <path
       style="display:inline;fill:#277b27;stroke:none;stroke-width:0.06726693px;stroke-linecap:butt;stroke-linejoin:miter;stroke-opacity:1;fill-opacity:1;filter:url(#filter14804)"
       d="m 420.13857,238.40942 c 2.85317,-2.54848 5.52642,-4.76223 4.75648,-8.93541 -0.21463,3.84176 -2.42997,4.07087 -3.87314,6.35331 0.88335,-1.359 0.33975,-3.09172 1.97055,-5.77573 -1.52887,0.57757 -2.75197,3.36352 -3.19364,5.09623 0,0 1.32502,-6.04753 -0.74745,-8.62963 0.36489,4.94644 -1.359,6.11549 -0.47565,8.28988 -0.23782,-2.10645 -2.92185,-4.79046 -2.92185,-4.79046 0.8154,2.48016 1.32503,4.68854 1.0872,5.46996 -2.00452,-0.034 -3.87314,-3.19363 -3.87314,-3.19363 0.20385,3.66928 2.10644,6.25138 2.10644,6.25138 z"
       id="path4261"
       inkscape:connector-curvature="0"
       sodipodi:nodetypes="cccccccccccc"
       transform="matrix(1.0597812,0,0,1.0597812,-20.245909,-11.388325)" />
    <path
       sodipodi:nodetypes="cccccccccccc"
       inkscape:connector-curvature="0"
       id="path4263"
       d="m 630.61646,289.1423 c -3.86763,-3.4546 -7.49138,-6.45547 -6.44768,-12.11244 0.29094,5.20772 3.29397,5.51829 5.25026,8.61227 -1.19742,-1.8422 -0.46055,-4.191 -2.67118,-7.82933 2.07246,0.78293 3.73044,4.55944 4.32915,6.90823 0,0 -1.79614,-8.19777 1.01321,-11.69794 -0.49464,6.70516 1.8422,8.28988 0.64477,11.23739 0.32238,-2.85541 3.96072,-6.49374 3.96072,-6.49374 -1.10532,3.362 -1.79614,6.35557 -1.47375,7.41484 2.71723,-0.046 5.25026,-4.32915 5.25026,-4.32915 -0.27633,4.97392 -2.85541,8.47409 -2.85541,8.47409 z"
       style="display:inline;fill:#277b27;stroke:none;stroke-width:0.09118407px;stroke-linecap:butt;stroke-linejoin:miter;stroke-opacity:1;fill-opacity:1;filter:url(#filter14808)"
       transform="matrix(1.0597812,0,0,1.0597812,-20.245909,-11.388325)" />
    <path
       style="display:inline;fill:#277b27;stroke:none;stroke-width:0.13901836px;stroke-linecap:butt;stroke-linejoin:miter;stroke-opacity:1;fill-opacity:1;filter:url(#filter14812)"
       d="m 647.94455,352.65581 c -5.89655,-5.26686 -11.42128,-9.84195 -9.83008,-18.46652 0.44358,7.93964 5.02195,8.41313 8.0045,13.13019 -1.82558,-2.8086 -0.70215,-6.38956 -4.07246,-11.93653 3.15966,1.19365 5.6874,6.95128 6.60019,10.53223 0,0 -2.73838,-12.49825 1.54473,-17.83458 -0.75412,10.22264 2.8086,12.63868 0.98301,17.13243 0.4915,-4.35333 6.03848,-9.9003 6.03848,-9.9003 -1.68516,5.12568 -2.73838,9.68965 -2.24687,11.3046 4.14267,-0.0702 8.00448,-6.60019 8.00448,-6.60019 -0.42129,7.5832 -4.35331,12.91953 -4.35331,12.91953 z"
       id="path4265"
       inkscape:connector-curvature="0"
       sodipodi:nodetypes="cccccccccccc"
       transform="matrix(1.0597812,0,0,1.0597812,-20.245909,-11.388325)" />
    <path
       sodipodi:nodetypes="cccccccccccc"
       inkscape:connector-curvature="0"
       id="path4267"
       d="m 503.61901,373.50283 c -5.89655,-5.26686 -11.42128,-9.84195 -9.83008,-18.46652 0.44358,7.93964 5.02195,8.41313 8.0045,13.13019 -1.82558,-2.8086 -0.70215,-6.38956 -4.07246,-11.93653 3.15966,1.19365 5.6874,6.95128 6.60019,10.53223 0,0 -2.73838,-12.49825 1.54473,-17.83458 -0.75412,10.22264 2.8086,12.63868 0.98301,17.13243 0.4915,-4.35333 6.03848,-9.9003 6.03848,-9.9003 -1.68516,5.12568 -2.73838,9.68965 -2.24687,11.3046 4.14267,-0.0702 8.00448,-6.60019 8.00448,-6.60019 -0.42129,7.5832 -4.35331,12.91953 -4.35331,12.91953 z"
       style="display:inline;fill:#277b27;stroke:none;stroke-width:0.13901836px;stroke-linecap:butt;stroke-linejoin:miter;stroke-opacity:1;fill-opacity:1;filter:url(#filter14816)"
       transform="matrix(1.0597812,0,0,1.0597812,-20.245909,-11.388325)" />
    <path
       style="display:inline;fill:#277b27;stroke:none;stroke-width:0.06726693px;stroke-linecap:butt;stroke-linejoin:miter;stroke-opacity:1;fill-opacity:1;filter:url(#filter14820)"
       d="m 465.33248,221.30416 c -2.85317,-2.54848 -5.52642,-4.76223 -4.75648,-8.93541 0.21463,3.84176 2.42997,4.07087 3.87314,6.35331 -0.88335,-1.359 -0.33975,-3.09172 -1.97055,-5.77573 1.52887,0.57757 2.75197,3.36352 3.19364,5.09623 0,0 -1.32502,-6.04753 0.74745,-8.62963 -0.36489,4.94644 1.359,6.11549 0.47565,8.28988 0.23782,-2.10645 2.92185,-4.79046 2.92185,-4.79046 -0.8154,2.48016 -1.32503,4.68854 -1.0872,5.46996 2.00452,-0.0339 3.87314,-3.19363 3.87314,-3.19363 -0.20385,3.66928 -2.10644,6.25138 -2.10644,6.25138 z"
       id="path4269"
       inkscape:connector-curvature="0"
       sodipodi:nodetypes="cccccccccccc"
       transform="matrix(1.0597812,0,0,1.0597812,-20.245909,-11.388325)" />
    <path
       sodipodi:nodetypes="cccccccccccc"
       inkscape:connector-curvature="0"
       id="path4271"
       d="m 347.19935,231.99494 c -2.85317,-2.54848 -5.52642,-4.76223 -4.75648,-8.93541 0.21463,3.84176 2.42997,4.07087 3.87314,6.35331 -0.88335,-1.359 -0.33975,-3.09172 -1.97055,-5.77573 1.52887,0.57757 2.75197,3.36352 3.19364,5.09623 0,0 -1.32502,-6.04753 0.74745,-8.62963 -0.36489,4.94644 1.359,6.11549 0.47565,8.28988 0.23782,-2.10645 2.92185,-4.79046 2.92185,-4.79046 -0.8154,2.48016 -1.32503,4.68854 -1.0872,5.46996 2.00452,-0.034 3.87314,-3.19363 3.87314,-3.19363 -0.20385,3.66928 -2.10644,6.25138 -2.10644,6.25138 z"
       style="display:inline;fill:#277b27;stroke:none;stroke-width:0.06726693px;stroke-linecap:butt;stroke-linejoin:miter;stroke-opacity:1;fill-opacity:1;filter:url(#filter14824)"
       transform="matrix(1.0597812,0,0,1.0597812,-20.245909,-11.388325)" />
    <path
       style="display:inline;fill:#277b27;stroke:none;stroke-width:0.06128765px;stroke-linecap:butt;stroke-linejoin:miter;stroke-opacity:1;fill-opacity:1;filter:url(#filter14828)"
       d="m 240.93186,235.74879 c -2.59955,-2.32195 -5.03518,-4.33892 -4.33369,-8.14115 0.19556,3.50027 2.21398,3.70901 3.52887,5.78857 -0.80483,-1.2382 -0.30955,-2.8169 -1.79539,-5.26233 1.39297,0.52623 2.50735,3.06454 2.90976,4.64323 0,0 -1.20724,-5.50997 0.68101,-7.86255 -0.33246,4.50675 1.2382,5.57189 0.43337,7.553 0.21669,-1.91921 2.66213,-4.36464 2.66213,-4.36464 -0.74292,2.2597 -1.20724,4.27178 -0.99056,4.98374 1.82634,-0.0309 3.52886,-2.90975 3.52886,-2.90975 -0.18573,3.34312 -1.9192,5.6957 -1.9192,5.6957 z"
       id="path4273"
       inkscape:connector-curvature="0"
       sodipodi:nodetypes="cccccccccccc"
       transform="matrix(1.0597812,0,0,1.0597812,-20.245909,-11.388325)" />
    <path
       sodipodi:nodetypes="cccccccccccc"
       inkscape:connector-curvature="0"
       id="path4275"
       d="m 15.785142,255.51466 c -2.853169,-2.54848 -5.526426,-4.76223 -4.756488,-8.93541 0.214632,3.84176 2.429976,4.07087 3.873144,6.35331 -0.883344,-1.359 -0.33975,-3.09172 -1.970544,-5.77573 1.528866,0.57757 2.751966,3.36352 3.193638,5.09623 0,0 -1.325022,-6.04753 0.74745,-8.62963 -0.364898,4.94644 1.358999,6.11549 0.47565,8.28988 0.237822,-2.10645 2.921843,-4.79046 2.921843,-4.79046 -0.8154,2.48016 -1.325022,4.68854 -1.087194,5.46996 2.004516,-0.0339 3.873138,-3.19363 3.873138,-3.19363 -0.20385,3.66928 -2.106444,6.25138 -2.106444,6.25138 z"
       style="display:inline;fill:#277b27;stroke:none;stroke-width:0.06726693px;stroke-linecap:butt;stroke-linejoin:miter;stroke-opacity:1;fill-opacity:1;filter:url(#filter14832)"
       transform="matrix(1.0597812,0,0,1.0597812,-20.245909,-11.388325)" />
    <path
       style="display:inline;opacity:0.5979996;vector-effect:none;fill:#e6e6e6;fill-opacity:1;fill-rule:nonzero;stroke:none;stroke-width:8.46666622;stroke-linecap:round;stroke-linejoin:round;stroke-miterlimit:4;stroke-dasharray:33.86666393, 8.46666598;stroke-dashoffset:0;stroke-opacity:1;paint-order:normal;filter:url(#filter14132)"
       d="m 125.23628,12.087412 a 29.898498,18.441597 0 0 0 -26.945637,10.503235 41.426772,16.929691 0 0 0 -30.695805,-5.589323 41.426772,16.929691 0 0 0 -41.42641,16.929717 41.426772,16.929691 0 0 0 0.89762,3.41426 18.441597,41.426772 82.833751 0 0 -19.4732286,18.762162 18.441597,41.426772 82.833751 0 0 43.4040666,13.129948 18.441597,41.426772 82.833751 0 0 6.599081,-1.080553 41.426772,18.441597 0 0 0 27.385925,4.626073 41.426772,18.441597 0 0 0 31.368108,-6.409428 37.647012,15.984752 0 0 0 21.92682,3.008085 37.647012,15.984752 0 0 0 37.6468,-15.985069 37.647012,15.984752 0 0 0 -23.80371,-14.849224 29.898498,18.441597 0 0 0 3.0148,-8.018115 29.898498,18.441597 0 0 0 -29.89843,-18.441768 z"
       id="path4277"
       inkscape:connector-curvature="0"
       transform="matrix(1.0597812,0,0,1.0597812,-20.245909,-11.388325)" />
    <path
       style="display:inline;opacity:0.5979996;vector-effect:none;fill:#ececec;fill-opacity:1;fill-rule:nonzero;stroke:none;stroke-width:6.02610445;stroke-linecap:round;stroke-linejoin:round;stroke-miterlimit:4;stroke-dasharray:24.10441707, 6.02610426;stroke-dashoffset:0;stroke-opacity:1;paint-order:normal;filter:url(#filter14128)"
       d="m 581.89883,44.215535 a 25.315435,14.739843 0 0 0 -25.31526,14.73967 25.315435,14.739843 0 0 0 0.0398,0.65474 29.485285,13.125708 0 0 0 -2.07481,1.146183 27.198592,12.18413 0 0 0 -16.79689,11.246858 27.198592,12.18413 0 0 0 27.19885,12.184269 27.198592,12.18413 0 0 0 17.34831,-2.81378 29.485285,13.125708 0 0 0 4.57747,-0.422196 29.485285,13.125708 0 0 0 25.01863,6.19497 29.485285,13.125708 0 0 0 26.06302,-7.005775 25.315435,13.125708 0 0 0 0.43564,0.01137 25.315435,13.125708 0 0 0 25.31525,-13.125812 25.315435,13.125708 0 0 0 -15.14173,-12.010639 29.485285,13.125708 0 0 0 -28.60135,-9.992669 29.485285,13.125708 0 0 0 -20.12331,3.546035 25.315435,14.739843 0 0 0 -17.94362,-4.353223 z"
       id="ellipse4290"
       inkscape:connector-curvature="0"
       transform="matrix(1.0597812,0,0,1.0597812,-20.245909,-11.388325)" />
    <path
       style="display:inline;opacity:0.5979996;vector-effect:none;fill:#e6e6e6;fill-opacity:1;fill-rule:nonzero;stroke:none;stroke-width:5.93313313;stroke-linecap:round;stroke-linejoin:round;stroke-miterlimit:4;stroke-dasharray:23.73253244, 5.93313311;stroke-dashoffset:0;stroke-opacity:1;paint-order:normal;filter:url(#filter14124)"
       d="m 474.19905,5.2837673 a 23.335635,12.923204 0 0 0 -23.33564,12.9233237 23.335635,12.923204 0 0 0 0.22308,1.663986 24.527559,10.539355 0 0 0 -23.26684,10.520232 24.527559,10.539355 0 0 0 1.30039,3.344992 22.14371,12.923204 0 0 0 -14.01441,12.017274 22.14371,12.923204 0 0 0 22.14386,12.923325 22.14371,12.923204 0 0 0 2.3057,-0.08474 20.700349,9.214995 27.497783 0 0 7.7427,5.135724 20.700349,9.214995 27.497783 0 0 22.61643,1.383698 20.700349,9.214995 27.497783 0 0 0.24807,-3.755284 29.030383,12.923204 0 0 0 21.91573,4.472301 29.030383,12.923204 0 0 0 29.03014,-12.923324 29.030383,12.923204 0 0 0 -2.63849,-5.345035 29.030383,12.923204 22.50861 0 0 8.90297,-4.995941 29.030383,12.923204 22.50861 0 0 -21.87156,-23.052455 29.030383,12.923204 22.50861 0 0 -8.13777,-2.734442 23.335635,12.923204 0 0 0 -23.16436,-11.4936347 z"
       id="ellipse4302"
       inkscape:connector-curvature="0"
       transform="matrix(1.0597812,0,0,1.0597812,-20.245909,-11.388325)" />
  </g>
</svg>
