<?xml version="1.0" encoding="UTF-8" standalone="no"?>
<!-- Created with Inkscape (http://www.inkscape.org/) -->

<svg
   xmlns:dc="http://purl.org/dc/elements/1.1/"
   xmlns:cc="http://creativecommons.org/ns#"
   xmlns:rdf="http://www.w3.org/1999/02/22-rdf-syntax-ns#"
   xmlns:svg="http://www.w3.org/2000/svg"
   xmlns="http://www.w3.org/2000/svg"
   xmlns:sodipodi="http://sodipodi.sourceforge.net/DTD/sodipodi-0.dtd"
   xmlns:inkscape="http://www.inkscape.org/namespaces/inkscape"
   width="100"
   height="100"
   viewBox="0 0 26.458332 26.458334"
   version="1.1"
   id="svg8"
   inkscape:version="0.92.3 (2405546, 2018-03-11)"
   sodipodi:docname="faviconLarge.svg"
   inkscape:export-filename="D:\Dropbox\CuddlyCthulhuCreatives\VideoGames\FetchQuest\Assets\faviconLarge.png"
   inkscape:export-xdpi="96"
   inkscape:export-ydpi="96">
  <defs
     id="defs2" />
  <sodipodi:namedview
     id="base"
     pagecolor="#ffffff"
     bordercolor="#666666"
     borderopacity="1.0"
     inkscape:pageopacity="0.0"
     inkscape:pageshadow="2"
     inkscape:zoom="1.979899"
     inkscape:cx="-71.586831"
     inkscape:cy="-54.036601"
     inkscape:document-units="px"
     inkscape:current-layer="layer1"
     showgrid="false"
     inkscape:pagecheckerboard="true"
     inkscape:window-width="2560"
     inkscape:window-height="1377"
     inkscape:window-x="-8"
     inkscape:window-y="32"
     inkscape:window-maximized="1"
     units="px" />
  <metadata
     id="metadata5">
    <rdf:RDF>
      <cc:Work
         rdf:about="">
        <dc:format>image/svg+xml</dc:format>
        <dc:type
           rdf:resource="http://purl.org/dc/dcmitype/StillImage" />
        <dc:title></dc:title>
      </cc:Work>
    </rdf:RDF>
  </metadata>
  <g
     inkscape:label="Layer 1"
     inkscape:groupmode="layer"
     id="layer1"
     transform="translate(0,-270.54163)">
    <g
       id="g1464"
       transform="matrix(3.232143,0,0,3.1648933,-0.20074392,-642.8273)"
       style="fill:#333333">
      <path
         inkscape:connector-curvature="0"
         id="path1432"
         d="m 7.8603663,294.8946 c -0.021498,0.0178 -0.1210852,0.10789 -0.2208895,0.2013 -0.09979,0.0934 -0.1990811,0.17474 -0.2205567,0.18092 -0.021654,0.005 -0.127377,0.0825 -0.2354727,0.16929 -0.364421,0.29355 -0.9820421,0.74656 -1.3169106,0.96599 -0.6151218,0.40302 -1.1323781,0.58123 -1.4759385,0.50863 -0.1975352,-0.0418 -0.3888995,-0.19077 -0.5221606,-0.40649 -0.2001531,-0.32399 -0.1700225,-0.64509 0.1049609,-1.1187 0.2195175,-0.37811 0.2791046,-0.54591 0.3252166,-0.91622 0.056115,-0.45062 0.095252,-0.55285 0.3025656,-0.79057 0.1392014,-0.15964 0.2116194,-0.21436 0.4127526,-0.31213 0.301698,-0.14657 0.4621523,-0.15771 0.8183006,-0.0591 0.3356817,0.0933 0.5240411,0.0883 0.9160965,-0.0245 0.5712672,-0.16432 0.8031814,-0.16223 1.0723697,0.0104 0.5311886,0.3397 0.6162655,0.80024 0.2448924,1.32566 -0.091184,0.12901 -0.1835183,0.24875 -0.2053441,0.26598 z"
         style="fill:#333333;stroke-width:0.03271371" />
      <path
         inkscape:connector-curvature="0"
         id="path1430"
         d="m 7.1613439,292.76391 c -0.1842633,0.0468 -0.3184138,0.0465 -0.5477312,-9.1e-4 -0.4332304,-0.0897 -0.9076171,-0.37595 -1.0957703,-0.66125 -0.1210656,-0.18358 -0.1783139,-0.54633 -0.1309201,-0.82961 0.032556,-0.19452 0.059293,-0.25779 0.1697267,-0.40142 0.1127082,-0.14642 0.1512385,-0.17586 0.2740857,-0.20858 0.080897,-0.0218 0.2315669,-0.0197 0.3471473,0.004 0.3530465,0.0732 0.8355542,0.46183 1.0952312,0.88218 0.148839,0.24093 0.2501844,0.58381 0.2264581,0.7662 -0.027742,0.21337 -0.1738734,0.40743 -0.3382185,0.44918 z"
         style="fill:#333333;stroke-width:0.03271371" />
      <path
         inkscape:connector-curvature="0"
         id="path1428"
         d="m 3.3463077,295.78327 c -0.2113811,0.14319 -0.4830637,0.19652 -0.7003662,0.13768 -0.5189638,-0.1404 -1.1520561,-1.13881 -1.096291,-1.72887 0.037706,-0.39895 0.3894892,-0.57364 0.9476769,-0.47061 0.7550036,0.13933 1.2764154,0.84625 1.1413144,1.54739 -0.037937,0.19677 -0.1722416,0.43314 -0.2923269,0.51443 z"
         style="fill:#333333;stroke-width:0.03271371" />
      <path
         inkscape:connector-curvature="0"
         id="path1426"
         d="m 4.473471,292.08783 c -0.2500927,0.12795 -0.5110763,0.075 -0.8224603,-0.16633 -0.2571224,-0.1993 -0.4378082,-0.43087 -0.6201327,-0.79475 -0.1744477,-0.34815 -0.2278848,-0.65252 -0.1665117,-0.94857 0.081517,-0.3933 0.2804625,-0.58079 0.6400804,-0.60325 0.317484,-0.0198 0.5268499,0.0577 0.8625036,0.31951 0.3909413,0.30489 0.4855302,0.46409 0.5431131,0.91418 0.074216,0.58011 -0.1068799,1.11074 -0.4365924,1.27921 z"
         style="fill:#333333;stroke-width:0.03271371" />
      <path
         inkscape:connector-curvature="0"
         id="path888"
         d="m 3.2607988,293.19675 c -0.3279078,0.20928 -0.7565296,0.22811 -1.2633196,0.0557 -0.7500282,-0.25525 -1.16330764,-1.33112 -0.728555,-1.8966 0.4509244,-0.58697 1.6744177,-0.0985 2.1392106,0.85391 0.1342339,0.27505 0.159055,0.52053 0.072585,0.71798 -0.072953,0.16664 -0.08747,0.18443 -0.219894,0.26897 z"
         style="fill:#333333;stroke-width:0.03271371" />
      <path
         inkscape:connector-curvature="0"
         id="path1418"
         d="m 0.45454417,293.18942 c 0,0 0.37916189,0.62415 0.77092583,1.00193 7.475e-4,-0.0247 -1.568e-4,-0.0492 0.00211,-0.0738 0.018093,-0.19145 0.1048045,-0.36778 0.2359993,-0.49645 -0.4547116,-0.24496 -1.00903978,-0.43174 -1.00903932,-0.43174 z"
         style="fill:#333333;stroke:#333333;stroke-width:0.22149432;stroke-linecap:round;stroke-linejoin:round;stroke-miterlimit:4;stroke-dasharray:none;stroke-opacity:1" />
      <path
         inkscape:connector-curvature="0"
         id="path1420"
         d="m 0.18952455,290.52962 c 0,0 0.27352967,0.55637 0.59526051,0.96622 0.041406,-0.12863 0.1024266,-0.25237 0.1900122,-0.36631 0.034744,-0.0452 0.073645,-0.0853 0.11456864,-0.1228 -0.41743892,-0.26468 -0.89989853,-0.47727 -0.89989853,-0.47727 z"
         style="fill:#333333;stroke:#333333;stroke-width:0.17038023;stroke-linecap:round;stroke-linejoin:round;stroke-miterlimit:4;stroke-dasharray:none;stroke-opacity:1" />
      <path
         inkscape:connector-curvature="0"
         id="path1422"
         d="m 2.2694929,288.6645 c 0,0 0.1815904,0.5897 0.4336885,1.04471 0.043578,-0.0744 0.093295,-0.14442 0.1567281,-0.20427 0.081589,-0.077 0.1775633,-0.13429 0.281145,-0.17501 -0.3804974,-0.34879 -0.8715611,-0.66543 -0.8715616,-0.66543 z"
         style="fill:#333333;stroke:#333333;stroke-width:0.17038023;stroke-linecap:round;stroke-linejoin:round;stroke-miterlimit:4;stroke-dasharray:none;stroke-opacity:1" />
      <path
         style="fill:#333333;stroke:#333333;stroke-width:0.22149432;stroke-linecap:round;stroke-linejoin:round;stroke-miterlimit:4;stroke-dasharray:none;stroke-opacity:1"
         d="m 4.8931709,289.5746 c 0,0 0.6322427,0.3655 1.0184706,0.74897 -0.02426,0.002 -0.049302,8.3e-4 -0.07368,0.004 -0.1909856,0.0223 -0.3653933,0.11284 -0.4912079,0.24674 -0.2547699,-0.44927 -0.4535679,-0.99942 -0.4535679,-0.99942 z"
         id="path1453"
         inkscape:connector-curvature="0" />
    </g>
  </g>
</svg>
