<?xml version="1.0" encoding="UTF-8" standalone="no"?>
<!-- Created with Inkscape (http://www.inkscape.org/) -->

<svg
   xmlns:dc="http://purl.org/dc/elements/1.1/"
   xmlns:cc="http://creativecommons.org/ns#"
   xmlns:rdf="http://www.w3.org/1999/02/22-rdf-syntax-ns#"
   xmlns:svg="http://www.w3.org/2000/svg"
   xmlns="http://www.w3.org/2000/svg"
   xmlns:xlink="http://www.w3.org/1999/xlink"
   xmlns:sodipodi="http://sodipodi.sourceforge.net/DTD/sodipodi-0.dtd"
   xmlns:inkscape="http://www.inkscape.org/namespaces/inkscape"
   width="832"
   height="704"
   viewBox="0 0 220.13333 186.26667"
   version="1.1"
   id="svg8"
   inkscape:version="0.92.3 (2405546, 2018-03-11)"
   sodipodi:docname="textContainer.svg"
   enable-background="new"
   inkscape:export-filename="D:\Dropbox\CuddlyCthulhuCreatives\VideoGames\FetchQuest\Assets\Containers\textContainer.png"
   inkscape:export-xdpi="96"
   inkscape:export-ydpi="96">
  <defs
     id="defs2">
    <linearGradient
       inkscape:collect="always"
       id="linearGradient2185">
      <stop
         style="stop-color:#fffbea;stop-opacity:1"
         offset="0"
         id="stop2181" />
      <stop
         style="stop-color:#ffeba0;stop-opacity:1"
         offset="1"
         id="stop2183" />
    </linearGradient>
    <filter
       inkscape:collect="always"
       style="color-interpolation-filters:sRGB"
       id="filter2140">
      <feBlend
         inkscape:collect="always"
         mode="multiply"
         in2="BackgroundImage"
         id="feBlend2142" />
    </filter>
    <filter
       inkscape:label="Bark"
       inkscape:menu="Textures"
       inkscape:menu-tooltip="Bark texture, vertical; use with deep colors"
       style="color-interpolation-filters:sRGB;"
       id="filter2166">
      <feTurbulence
         seed="10"
         baseFrequency="0.12 0.02"
         numOctaves="10"
         type="fractalNoise"
         id="feTurbulence2144" />
      <feColorMatrix
         values="1 0 0 0 0 0 1 0 0 0 0 0 1 0 0 0 0 0 0.7 0 "
         result="result5"
         id="feColorMatrix2146" />
      <feComposite
         in2="result5"
         operator="out"
         in="SourceGraphic"
         id="feComposite2148" />
      <feMorphology
         result="result3"
         radius="1.3"
         operator="dilate"
         id="feMorphology2150" />
      <feTurbulence
         seed="25"
         type="turbulence"
         baseFrequency="0.08 0.05"
         numOctaves="8"
         result="result91"
         id="feTurbulence2152" />
      <feDisplacementMap
         result="result4"
         scale="5"
         yChannelSelector="G"
         xChannelSelector="R"
         in="result3"
         in2="result91"
         id="feDisplacementMap2154" />
      <feSpecularLighting
         specularExponent="35"
         specularConstant="1"
         surfaceScale="2"
         lighting-color="rgb(255,255,255)"
         result="result1"
         in="result4"
         id="feSpecularLighting2158">
        <feDistantLight
           azimuth="235"
           elevation="75"
           id="feDistantLight2156" />
      </feSpecularLighting>
      <feComposite
         operator="in"
         result="result2"
         in="result1"
         in2="result4"
         id="feComposite2160" />
      <feComposite
         k3="1"
         k2="1"
         operator="arithmetic"
         result="result4"
         in="result4"
         in2="result2"
         id="feComposite2162" />
      <feBlend
         mode="multiply"
         in2="result4"
         id="feBlend2164" />
    </filter>
    <clipPath
       clipPathUnits="userSpaceOnUse"
       id="clipPath2174">
      <path
         inkscape:connector-curvature="0"
         style="opacity:1;vector-effect:none;fill:#9c6037;fill-opacity:1;fill-rule:nonzero;stroke:none;stroke-width:0.79374999;stroke-linecap:round;stroke-linejoin:round;stroke-miterlimit:4;stroke-dasharray:none;stroke-dashoffset:0;stroke-opacity:1;paint-order:normal"
         d="M 3.6850463,0 C 1.6434037,0 0,1.6434037 0,3.6850463 V 182.58162 c 0,2.04164 1.6434037,3.68505 3.6850463,3.68505 H 216.44829 c 2.04164,0 3.68504,-1.64341 3.68504,-3.68505 V 3.6850463 C 220.13333,1.6434037 218.48993,0 216.44829,0 Z M 9.0785156,4.7247762 H 211.05482 c 1.93807,0 3.49849,1.5604255 3.49849,3.4984944 V 178.0434 c 0,1.93807 -1.56042,3.49849 -3.49849,3.49849 H 9.0785156 c -1.9380689,0 -3.4984944,-1.56042 -3.4984944,-3.49849 V 8.2232706 c 0,-1.9380689 1.5604255,-3.4984944 3.4984944,-3.4984944 z"
         id="path2176" />
    </clipPath>
    <linearGradient
       inkscape:collect="always"
       xlink:href="#linearGradient2185"
       id="linearGradient847"
       gradientUnits="userSpaceOnUse"
       gradientTransform="matrix(0.99639425,0,0,0.99573867,-341.17358,-28.468234)"
       x1="2.8348215"
       y1="2.3812494"
       x2="217.90327"
       y2="183.99881" />
  </defs>
  <sodipodi:namedview
     id="base"
     pagecolor="#ffffff"
     bordercolor="#666666"
     borderopacity="1.0"
     inkscape:pageopacity="0.0"
     inkscape:pageshadow="2"
     inkscape:zoom="1.4"
     inkscape:cx="515.60261"
     inkscape:cy="314.40066"
     inkscape:document-units="px"
     inkscape:current-layer="layer4"
     showgrid="false"
     inkscape:pagecheckerboard="true"
     inkscape:window-width="2560"
     inkscape:window-height="1377"
     inkscape:window-x="-8"
     inkscape:window-y="32"
     inkscape:window-maximized="1"
     units="px"
     inkscape:snap-page="true"
     inkscape:snap-global="false" />
  <metadata
     id="metadata5">
    <rdf:RDF>
      <cc:Work
         rdf:about="">
        <dc:format>image/svg+xml</dc:format>
        <dc:type
           rdf:resource="http://purl.org/dc/dcmitype/StillImage" />
        <dc:title />
      </cc:Work>
    </rdf:RDF>
  </metadata>
  <g
     inkscape:groupmode="layer"
     id="layer4"
     inkscape:label="Layer 4">
    <path
       style="opacity:0.399;vector-effect:none;fill:#333333;fill-opacity:1;fill-rule:nonzero;stroke:none;stroke-width:3;stroke-linecap:round;stroke-linejoin:round;stroke-miterlimit:4;stroke-dasharray:none;stroke-dashoffset:0;stroke-opacity:1;paint-order:normal"
       d="M 15.376953 1.5 C 7.6883324 1.5 1.5 7.6855784 1.5 15.369141 L 1.5 688.63086 C 1.5 696.31441 7.6883324 702.5 15.376953 702.5 L 816.62305 702.5 C 824.31166 702.5 830.5 696.31441 830.5 688.63086 L 830.5 15.369141 C 830.5 7.6855784 824.31166 1.5 816.62305 1.5 L 15.376953 1.5 z "
       transform="scale(0.26458333)"
       id="rect2179"
       inkscape:export-xdpi="96"
       inkscape:export-ydpi="96" />
    <rect
       ry="3.7357249"
       y="-26.097132"
       x="-338.16068"
       height="180.65544"
       width="214.10468"
       id="rect839"
       style="opacity:1;vector-effect:none;fill:url(#linearGradient847);fill-opacity:1;fill-rule:nonzero;stroke:none;stroke-width:0.79374999;stroke-linecap:round;stroke-linejoin:round;stroke-miterlimit:4;stroke-dasharray:none;stroke-dashoffset:0;stroke-opacity:1;paint-order:normal" />
  </g>
  <g
     inkscape:label="Layer 1"
     inkscape:groupmode="layer"
     id="layer1"
     transform="translate(0,-110.7333)">
    <path
       inkscape:connector-curvature="0"
       id="path841"
       d="m -337.50182,82.265061 c -2.03428,0 -3.67176,1.6364 -3.67176,3.66935 V 264.06864 c 0,2.03294 1.63748,3.66934 3.67176,3.66934 h 211.99607 c 2.03428,0 3.67176,-1.6364 3.67176,-3.66934 V 85.934411 c 0,-2.03295 -1.63748,-3.66935 -3.67176,-3.66935 z m 5.37402,4.70465 h 201.24803 c 1.93108,0 3.48588,1.55377 3.48588,3.48358 V 259.54975 c 0,1.92981 -1.5548,3.48359 -3.48588,3.48359 H -332.1278 c -1.93108,0 -3.48588,-1.55378 -3.48588,-3.48359 V 90.453291 c 0,-1.92981 1.5548,-3.48358 3.48588,-3.48358 z"
       style="opacity:1;vector-effect:none;fill:#9c6037;fill-opacity:1;fill-rule:nonzero;stroke:none;stroke-width:0.79374999;stroke-linecap:round;stroke-linejoin:round;stroke-miterlimit:4;stroke-dasharray:none;stroke-dashoffset:0;stroke-opacity:1;paint-order:normal" />
  </g>
  <g
     inkscape:groupmode="layer"
     id="layer2"
     inkscape:label="Layer 2"
     style="opacity:0.277;filter:url(#filter2140)">
    <path
       transform="matrix(0.99639425,0,0,0.99573867,-341.17358,-28.468234)"
       clip-path="url(#clipPath2174)"
       id="path843"
       d="M 3.6850463,0 C 1.6434037,0 0,1.6434037 0,3.6850463 V 182.58162 c 0,2.04164 1.6434037,3.68505 3.6850463,3.68505 H 216.44829 c 2.04164,0 3.68504,-1.64341 3.68504,-3.68505 V 3.6850463 C 220.13333,1.6434037 218.48993,0 216.44829,0 Z M 9.0785156,4.7247762 H 211.05482 c 1.93807,0 3.49849,1.5604255 3.49849,3.4984944 V 178.0434 c 0,1.93807 -1.56042,3.49849 -3.49849,3.49849 H 9.0785156 c -1.9380689,0 -3.4984944,-1.56042 -3.4984944,-3.49849 V 8.2232706 c 0,-1.9380689 1.5604255,-3.4984944 3.4984944,-3.4984944 z"
       style="opacity:1;vector-effect:none;fill:#9c6037;fill-opacity:1;fill-rule:nonzero;stroke:none;stroke-width:0.7968846;stroke-linecap:round;stroke-linejoin:round;stroke-miterlimit:4;stroke-dasharray:none;stroke-dashoffset:0;stroke-opacity:1;paint-order:normal;filter:url(#filter2166)"
       inkscape:connector-curvature="0" />
  </g>
  <g
     inkscape:groupmode="layer"
     id="layer3"
     inkscape:label="Layer 3"
     style="display:inline">
    <path
       style="opacity:1;vector-effect:none;fill:none;fill-opacity:1;fill-rule:nonzero;stroke:#333333;stroke-width:0.79374999;stroke-linecap:round;stroke-linejoin:round;stroke-miterlimit:4;stroke-dasharray:none;stroke-dashoffset:0;stroke-opacity:1;paint-order:normal"
       d="m -337.50182,-28.468234 c -2.03428,0 -3.67176,1.636401 -3.67176,3.669343 V 153.33534 c 0,2.03294 1.63748,3.66934 3.67176,3.66934 h 211.99606 c 2.03428,0 3.67176,-1.6364 3.67176,-3.66934 V -24.798891 c 0,-2.032942 -1.63748,-3.669343 -3.67176,-3.669343 z m 5.37402,4.704642 h 201.24802 c 1.93108,0 3.48588,1.553776 3.48588,3.483587 V 148.81645 c 0,1.92981 -1.5548,3.48359 -3.48588,3.48359 H -332.1278 c -1.93108,0 -3.48588,-1.55378 -3.48588,-3.48359 V -20.280005 c 0,-1.929811 1.5548,-3.483587 3.48588,-3.483587 z"
       id="path845"
       inkscape:connector-curvature="0" />
  </g>
</svg>
