<?xml version="1.0" encoding="UTF-8" standalone="no"?>
<!-- Created with Inkscape (http://www.inkscape.org/) -->

<svg
   xmlns:dc="http://purl.org/dc/elements/1.1/"
   xmlns:cc="http://creativecommons.org/ns#"
   xmlns:rdf="http://www.w3.org/1999/02/22-rdf-syntax-ns#"
   xmlns:svg="http://www.w3.org/2000/svg"
   xmlns="http://www.w3.org/2000/svg"
   xmlns:xlink="http://www.w3.org/1999/xlink"
   xmlns:sodipodi="http://sodipodi.sourceforge.net/DTD/sodipodi-0.dtd"
   xmlns:inkscape="http://www.inkscape.org/namespaces/inkscape"
   width="640"
   height="403"
   viewBox="0 0 169.33333 106.62709"
   version="1.1"
   id="svg8"
   inkscape:version="0.92.3 (2405546, 2018-03-11)"
   sodipodi:docname="tooltipContainer.svg"
   style="enable-background:new"
   inkscape:export-filename="D:\Dropbox\CuddlyCthulhuCreatives\VideoGames\FetchQuest\Assets\Containers\tooltipContainerShadow.png"
   inkscape:export-xdpi="96"
   inkscape:export-ydpi="96">
  <defs
     id="defs2">
    <clipPath
       clipPathUnits="userSpaceOnUse"
       id="clipPath2855">
      <path
         inkscape:connector-curvature="0"
         style="opacity:1;vector-effect:none;fill:#9c6037;fill-opacity:1;fill-rule:nonzero;stroke:none;stroke-width:0.79374999;stroke-linecap:round;stroke-linejoin:round;stroke-miterlimit:4;stroke-dasharray:none;stroke-dashoffset:0;stroke-opacity:1;paint-order:normal"
         d="M 5.8585571,0 C 2.6128755,0 0,2.8234487 0,6.3308796 V 129.13579 c 0,3.50743 2.6128755,6.33088 5.8585571,6.33088 H 256.60811 c 3.24568,0 5.85856,-2.82345 5.85856,-6.33088 V 6.3308796 C 262.46667,2.8234487 259.85379,0 256.60811,0 Z M 11.105782,4.1578858 H 251.36088 c 3.10985,0 5.6131,2.6501418 5.6131,5.9422732 V 125.36651 c 0,3.29213 -2.50325,5.94227 -5.6131,5.94227 H 11.105782 c -3.1098411,0 -5.6130939,-2.65014 -5.6130939,-5.94227 V 10.100159 c 0,-3.2921314 2.5032528,-5.9422732 5.6130939,-5.9422732 z"
         id="path2857" />
    </clipPath>
    <filter
       inkscape:label="Bark"
       inkscape:menu="Textures"
       inkscape:menu-tooltip="Bark texture, vertical; use with deep colors"
       style="color-interpolation-filters:sRGB"
       id="filter2847">
      <feTurbulence
         seed="10"
         baseFrequency="0.12 0.02"
         numOctaves="10"
         type="fractalNoise"
         id="feTurbulence2825" />
      <feColorMatrix
         values="1 0 0 0 0 0 1 0 0 0 0 0 1 0 0 0 0 0 0.7 0 "
         result="result5"
         id="feColorMatrix2827" />
      <feComposite
         in2="result5"
         operator="out"
         in="SourceGraphic"
         id="feComposite2829" />
      <feMorphology
         result="result3"
         radius="1.3"
         operator="dilate"
         id="feMorphology2831" />
      <feTurbulence
         seed="25"
         type="turbulence"
         baseFrequency="0.08 0.05"
         numOctaves="8"
         result="result91"
         id="feTurbulence2833" />
      <feDisplacementMap
         result="result4"
         scale="5"
         yChannelSelector="G"
         xChannelSelector="R"
         in="result3"
         in2="result91"
         id="feDisplacementMap2835" />
      <feSpecularLighting
         specularExponent="35"
         specularConstant="1"
         surfaceScale="2"
         lighting-color="#ffffff"
         result="result1"
         in="result4"
         id="feSpecularLighting2839">
        <feDistantLight
           azimuth="235"
           elevation="75"
           id="feDistantLight2837" />
      </feSpecularLighting>
      <feComposite
         operator="in"
         result="result2"
         in="result1"
         in2="result4"
         id="feComposite2841" />
      <feComposite
         k4="0"
         k1="0"
         k3="1"
         k2="1"
         operator="arithmetic"
         result="result4"
         in="result4"
         in2="result2"
         id="feComposite2843" />
      <feBlend
         mode="multiply"
         in2="result4"
         id="feBlend2845" />
    </filter>
    <linearGradient
       inkscape:collect="always"
       id="linearGradient2185">
      <stop
         style="stop-color:#eaf5ff;stop-opacity:1"
         offset="0"
         id="stop2181" />
      <stop
         style="stop-color:#a0d1ff;stop-opacity:1"
         offset="1"
         id="stop2183" />
    </linearGradient>
    <filter
       inkscape:collect="always"
       style="color-interpolation-filters:sRGB"
       id="filter1595">
      <feBlend
         inkscape:collect="always"
         mode="multiply"
         in2="BackgroundImage"
         id="feBlend1597" />
    </filter>
    <linearGradient
       inkscape:collect="always"
       xlink:href="#linearGradient2185"
       id="linearGradient1599"
       gradientUnits="userSpaceOnUse"
       gradientTransform="matrix(0.76785216,0,0,0.56494256,21.244741,-55.96214)"
       x1="2.8348215"
       y1="2.3812494"
       x2="217.90327"
       y2="183.99881" />
  </defs>
  <sodipodi:namedview
     id="base"
     pagecolor="#ffffff"
     bordercolor="#666666"
     borderopacity="1.0"
     inkscape:pageopacity="0.0"
     inkscape:pageshadow="2"
     inkscape:zoom="0.7"
     inkscape:cx="119.93184"
     inkscape:cy="330.63024"
     inkscape:document-units="px"
     inkscape:current-layer="layer1"
     showgrid="false"
     inkscape:pagecheckerboard="true"
     inkscape:window-width="2560"
     inkscape:window-height="1377"
     inkscape:window-x="-8"
     inkscape:window-y="32"
     inkscape:window-maximized="1"
     units="px" />
  <metadata
     id="metadata5">
    <rdf:RDF>
      <cc:Work
         rdf:about="">
        <dc:format>image/svg+xml</dc:format>
        <dc:type
           rdf:resource="http://purl.org/dc/dcmitype/StillImage" />
        <dc:title></dc:title>
      </cc:Work>
    </rdf:RDF>
  </metadata>
  <g
     inkscape:label="Layer 1"
     inkscape:groupmode="layer"
     id="layer1"
     transform="translate(0,-190.37288)">
    <path
       inkscape:connector-curvature="0"
       style="opacity:0.39899998;vector-effect:none;fill:#333333;fill-opacity:1;fill-rule:nonzero;stroke:none;stroke-width:0.56815815;stroke-linecap:round;stroke-linejoin:round;stroke-miterlimit:4;stroke-dasharray:none;stroke-dashoffset:0;stroke-opacity:1;paint-order:normal"
       d="m 3.7798105,190.37288 c -2.093991,0 -3.7798120198513,2.22228 -3.7798120198513,4.98301 v 96.66108 c 0,2.76072 1.6858210198513,4.983 3.7798120198513,4.983 H 165.55353 c 2.09399,0 3.77981,-2.22228 3.77981,-4.983 v -96.66108 c 0,-2.76073 -1.68582,-4.98301 -3.77981,-4.98301 z"
       id="rect2179"
       inkscape:export-xdpi="96"
       inkscape:export-ydpi="96" />
    <rect
       inkscape:export-ydpi="96"
       inkscape:export-xdpi="96"
       ry="2.1195018"
       y="-54.61689"
       x="23.566572"
       height="102.49672"
       width="164.99567"
       id="rect853"
       style="opacity:1;vector-effect:none;fill:url(#linearGradient1599);fill-opacity:1;fill-rule:nonzero;stroke:none;stroke-width:0.56570166;stroke-linecap:round;stroke-linejoin:round;stroke-miterlimit:4;stroke-dasharray:none;stroke-dashoffset:0;stroke-opacity:1;paint-order:normal" />
    <path
       inkscape:export-ydpi="96"
       inkscape:export-xdpi="96"
       inkscape:connector-curvature="0"
       id="path855"
       d="m 25.972562,-56.91868 c -2.086996,0 -3.767088,2.21058 -3.767088,4.95666 v 96.14808 c 0,2.74608 1.680092,4.95664 3.767088,4.95664 H 187.20601 c 2.087,0 3.76708,-2.21056 3.76708,-4.95664 v -96.14808 c 0,-2.74608 -1.68008,-4.95666 -3.76708,-4.95666 z m 3.373993,3.25536 H 183.83202 c 1.99963,0 3.60926,2.07487 3.60926,4.6524 v 90.24588 c 0,2.57752 -1.60963,4.6524 -3.60926,4.6524 H 29.346555 c -1.999643,0 -3.609254,-2.07488 -3.609254,-4.6524 v -90.24588 c 0,-2.57753 1.609611,-4.6524 3.609254,-4.6524 z"
       style="opacity:1;vector-effect:none;fill:#9c6037;fill-opacity:1;fill-rule:nonzero;stroke:none;stroke-width:0.56570166;stroke-linecap:round;stroke-linejoin:round;stroke-miterlimit:4;stroke-dasharray:none;stroke-dashoffset:0;stroke-opacity:1;paint-order:normal" />
  </g>
  <g
     inkscape:groupmode="layer"
     id="layer2"
     inkscape:label="Layer 2"
     style="filter:url(#filter1595)"
     transform="translate(0,21.960417)">
    <path
       inkscape:export-ydpi="96"
       inkscape:export-xdpi="96"
       transform="matrix(0.64300596,0,0,0.78293347,22.205474,-269.25198)"
       clip-path="url(#clipPath2855)"
       id="path857"
       d="M 5.8585571,0 C 2.6128755,0 0,2.8234487 0,6.3308796 V 129.13579 c 0,3.50743 2.6128755,6.33088 5.8585571,6.33088 H 256.60811 c 3.24568,0 5.85856,-2.82345 5.85856,-6.33088 V 6.3308796 C 262.46667,2.8234487 259.85379,0 256.60811,0 Z M 11.105782,4.1578858 H 251.36088 c 3.10985,0 5.6131,2.6501418 5.6131,5.9422732 V 125.36651 c 0,3.29213 -2.50325,5.94227 -5.6131,5.94227 H 11.105782 c -3.1098411,0 -5.6130939,-2.65014 -5.6130939,-5.94227 V 10.100159 c 0,-3.2921314 2.5032528,-5.9422732 5.6130939,-5.9422732 z"
       style="opacity:1;vector-effect:none;fill:#ffffff;fill-opacity:1;fill-rule:nonzero;stroke:none;stroke-width:0.79729217;stroke-linecap:round;stroke-linejoin:round;stroke-miterlimit:4;stroke-dasharray:none;stroke-dashoffset:0;stroke-opacity:1;paint-order:normal;filter:url(#filter2847)"
       inkscape:connector-curvature="0" />
  </g>
  <g
     inkscape:groupmode="layer"
     id="layer3"
     inkscape:label="Layer 3"
     transform="translate(0,21.960417)">
    <path
       inkscape:export-ydpi="96"
       inkscape:export-xdpi="96"
       id="path859"
       d="m 25.972562,-269.25198 c -2.086996,0 -3.767088,2.21057 -3.767088,4.95666 v 96.14808 c 0,2.74608 1.680092,4.95665 3.767088,4.95665 H 187.20601 c 2.087,0 3.76709,-2.21057 3.76709,-4.95665 v -96.14808 c 0,-2.74609 -1.68009,-4.95666 -3.76709,-4.95666 z m 3.373993,3.25535 H 183.832 c 1.99967,0 3.60928,2.07488 3.60928,4.6524 v 90.24589 c 0,2.57752 -1.60961,4.6524 -3.60928,4.6524 H 29.346555 c -1.999643,0 -3.609254,-2.07488 -3.609254,-4.6524 v -90.24589 c 0,-2.57752 1.609611,-4.6524 3.609254,-4.6524 z"
       style="opacity:1;vector-effect:none;fill:none;fill-opacity:1;fill-rule:nonzero;stroke:#333333;stroke-width:0.56570166;stroke-linecap:round;stroke-linejoin:round;stroke-miterlimit:4;stroke-dasharray:none;stroke-dashoffset:0;stroke-opacity:1;paint-order:normal"
       inkscape:connector-curvature="0" />
  </g>
</svg>
